<svg xmlns="http://www.w3.org/2000/svg" viewBox="0 0 380 290"><defs><linearGradient id="w" x1="0" y1="0" x2="0" y2="1"><stop stop-color="#d8c39b"/><stop offset="1" stop-color="#a27f59"/></linearGradient><linearGradient id="roof" x1="0" y1="0" x2="1" y2="1"><stop stop-color="#40506f"/><stop offset="1" stop-color="#252f49"/></linearGradient></defs><ellipse cx="190" cy="262" rx="145" ry="20" fill="#183019" opacity=".3"/><rect x="56" y="112" width="268" height="132" rx="6" fill="url(#w)" stroke="#554337" stroke-width="7"/><path d="M35 121 190 25l155 96-19 22-136-80-136 80z" fill="url(#roof)" stroke="#252534" stroke-width="8"/><path d="M69 111 190 40l121 71" fill="none" stroke="#657395" stroke-width="7" opacity=".55"/><g fill="#5b402e"><rect x="75" y="111" width="9" height="133"/><rect x="296" y="111" width="9" height="133"/><rect x="56" y="139" width="268" height="9"/></g><rect x="166" y="157" width="48" height="87" rx="4" fill="#573626" stroke="#352117" stroke-width="6"/><circle cx="202" cy="201" r="4" fill="#e2bd65"/><g fill="#f4c75a" stroke="#5a4534" stroke-width="5"><rect x="92" y="151" width="42" height="38"/><rect x="246" y="151" width="42" height="38"/></g><g stroke="#8b5b38" stroke-width="6"><path d="M113 151v38M92 170h42M267 151v38M246 170h42"/></g><rect x="265" y="37" width="27" height="61" fill="#7c6c62" stroke="#493d36" stroke-width="5"/><rect x="259" y="32" width="39" height="9" fill="#55463d"/><path d="M122 95h136l-19-20H141z" fill="#72513a" stroke="#4a3528" stroke-width="5"/><circle cx="190" cy="88" r="12" fill="#e7c26a" stroke="#5f4d39" stroke-width="5"/><path d="M190 88v-8m0 8 6 4" stroke="#5f4d39" stroke-width="3" stroke-linecap="round"/></svg>