o Cliff_Terrain_Side_Base
v -0.21650635 0.75000000 0.00000000
v 0.12500000 0.06698730 0.00000000
v -0.25000000 0.13397460 0.50000000
v -0.43301270 0.50000000 0.50000000
v -0.43301270 0.50000000 -0.50000000
v -0.25000000 0.13397460 -0.50000000
v 0.25000000 0.00000000 0.00000000
v -0.00000000 0.00000000 -0.50000000
v -0.25000000 1.00000000 0.00000000
v -0.50000000 1.00000000 -0.50000000
v -0.50000000 1.00000000 0.50000000
v -0.00000000 0.00000000 0.50000000
f 4 3 1
f 3 2 1
f 6 5 1
f 6 1 2
f 8 6 2
f 8 2 7
f 5 10 1
f 10 9 1
f 11 4 1
f 11 1 9
f 3 12 2
f 12 7 2
