o object1
g object1
v 0.61611652 0.00000000 -0.61611652
v 0.52772818 0.06698730 -0.52772818
v -0.01554446 0.13397460 -0.62500000
v 0.20096189 0.00000000 -0.75000000
v 0.17185199 0.06698730 -1.14412381
v 0.29259272 0.00000000 -1.17647619
v -0.25000000 0.13397460 -1.50000000
v -0.00000000 0.00000000 -1.50000000
v -0.15801782 0.75000000 -1.05573547
v -0.43301270 0.50000000 -1.50000000
v -0.19037020 1.00000000 -1.04706667
v -0.50000000 1.00000000 -1.50000000
v -0.17403811 0.50000000 -0.53349365
v -0.23205081 1.00000000 -0.50000000
v 0.28624672 0.75000000 -0.28624672
v 0.26256313 1.00000000 -0.26256313
v 0.53349365 0.50000000 0.17403811
v 0.50000000 1.00000000 0.23205081
v 0.62500000 0.13397460 0.01554446
v 1.14412381 0.06698730 -0.17185199
v 1.05573547 0.75000000 0.15801782
v 1.17647619 0.00000000 -0.29259272
v 0.75000000 0.00000000 -0.20096189
v 1.50000000 0.00000000 0.00000000
v 1.50000000 0.13397460 0.25000000
v 1.50000000 0.50000000 0.43301270
v 1.04706667 1.00000000 0.19037020
v 1.50000000 1.00000000 0.50000000
usemtl Rock
f 4 3 2
f 4 2 1
f 6 5 4
f 5 3 4
f 8 7 5
f 8 5 6
f 7 10 9
f 7 9 5
f 10 12 9
f 12 11 9
f 9 11 14
f 9 14 13
f 13 14 15
f 14 16 15
f 15 16 18
f 15 18 17
f 2 15 19
f 15 17 19
f 19 17 21
f 19 21 20
f 23 19 20
f 23 20 22
f 25 24 20
f 24 22 20
f 26 25 21
f 25 20 21
f 28 26 21
f 28 21 27
f 17 18 21
f 18 27 21
f 5 9 3
f 9 13 3
f 1 2 23
f 2 19 23
f 3 13 15
f 3 15 2
