o object1
g object1
v 0.62500000 1.20000000 0.01554446
v 0.70000000 1.15000000 -0.11435935
v 1.15059429 1.15000000 -0.19600013
v 1.11177143 1.20000000 -0.05111126
v 1.50000000 1.15000000 0.10000000
v 1.50000000 1.20000000 0.25000000
v 1.17647619 1.05000000 -0.29259272
v 1.50000000 1.05000000 -0.00000000
v 1.17647619 1.00000000 -0.29259272
v 1.50000000 1.00000000 -0.00000000
v 0.75000000 1.05000000 -0.20096189
v 0.75000000 1.00000000 -0.20096189
v 0.61611652 1.05000000 -0.61611652
v 0.61611652 1.00000000 -0.61611652
v 0.54540585 1.15000000 -0.54540585
v 0.11435935 1.15000000 -0.70000000
v 0.20096189 1.05000000 -0.75000000
v -0.01554446 1.20000000 -0.62500000
v 0.43933983 1.20000000 -0.43933983
v 0.05111126 1.20000000 -1.11177143
v 0.19600013 1.15000000 -1.15059429
v -0.25000000 1.20000000 -1.50000000
v -0.10000000 1.15000000 -1.50000000
v 0.29259272 1.05000000 -1.17647619
v 0.00000000 1.05000000 -1.50000000
v 0.29259272 1.00000000 -1.17647619
v 0.00000000 1.00000000 -1.50000000
v 0.17185199 0.93301270 -1.14412381
v -0.25000000 0.86602540 -1.50000000
v -0.15801782 0.25000000 -1.05573547
v -0.43301270 0.50000000 -1.50000000
v -0.19037020 -0.00000000 -1.04706667
v -0.50000000 0.00000000 -1.50000000
v -0.23205081 0.00000000 -0.50000000
v -0.17403811 0.50000000 -0.53349365
v 0.26256313 -0.00000000 -0.26256313
v 0.28624672 0.25000000 -0.28624672
v 0.50000000 0.00000000 0.23205081
v 0.53349365 0.50000000 0.17403811
v 1.04706667 -0.00000000 0.19037020
v 1.05573547 0.25000000 0.15801782
v 1.50000000 0.00000000 0.50000000
v 1.50000000 0.50000000 0.43301270
v 1.14412381 0.93301270 -0.17185199
v 1.50000000 0.86602540 0.25000000
v 0.62500000 0.86602540 0.01554446
v 0.52772818 0.93301270 -0.52772818
v -0.01554446 0.86602540 -0.62500000
v 0.20096189 1.00000000 -0.75000000
v -0.50000000 1.20000000 -1.50000000
v -0.50000000 1.20000000 0.50000000
v 1.50000000 1.20000000 0.50000000
usemtl Grass
f 4 3 2
f 4 2 1
f 6 5 4
f 5 3 4
f 5 8 3
f 8 7 3
f 8 10 7
f 10 9 7
f 7 9 12
f 7 12 11
f 11 12 13
f 12 14 13
f 2 11 15
f 11 13 15
f 15 13 17
f 15 17 16
f 19 15 16
f 19 16 18
f 18 16 20
f 16 21 20
f 23 22 20
f 23 20 21
f 25 23 21
f 25 21 24
f 27 25 24
f 27 24 26
f 29 27 28
f 27 26 28
usemtl Rock
f 31 29 30
f 29 28 30
f 33 31 30
f 33 30 32
f 35 34 30
f 34 32 30
f 37 36 34
f 37 34 35
f 39 38 37
f 38 36 37
f 41 40 38
f 41 38 39
f 43 42 41
f 42 40 41
f 45 43 41
f 45 41 44
f 44 41 46
f 41 39 46
f 46 39 37
f 46 37 47
f 47 37 48
f 37 35 48
usemtl Grass
f 14 47 49
f 47 48 49
usemtl Rock
f 48 35 30
f 48 30 28
usemtl Grass
f 49 48 28
f 49 28 26
f 17 49 24
f 49 26 24
f 16 17 21
f 17 24 21
f 13 14 17
f 14 49 17
f 12 46 47
f 12 47 14
f 9 44 12
f 44 46 12
f 10 45 44
f 10 44 9
f 52 6 4
f 51 52 1
f 1 19 18
f 18 20 50
f 20 22 50
f 18 50 51
f 51 1 18
f 52 4 1
f 1 2 19
f 2 15 19
f 3 7 11
f 3 11 2
