o object1
g object1
v -0.50000000 1.00000000 0.50000000
v -0.50000000 1.00000000 -0.50000000
v 0.18750000 1.00000000 -0.50000000
v 0.18750000 1.00000000 0.50000000
v 0.18750000 0.96650635 0.50000000
v 0.18750000 0.96650635 -0.50000000
v 0.12500000 0.93301270 -0.50000000
v 0.12500000 0.93301270 -0.00000000
v 0.12500000 0.93301270 0.50000000
v -0.43301270 0.50000000 0.50000000
v -0.21650635 0.25000000 -0.00000000
v -0.50000000 -0.00000000 0.50000000
v -0.25000000 -0.00000000 -0.00000000
v -0.50000000 -0.00000000 -0.50000000
v -0.43301270 0.50000000 -0.50000000
usemtl Dirt
f 4 3 1
f 3 2 1
f 5 6 3
f 5 3 4
usemtl Grass
f 8 7 6
f 5 8 6
f 5 9 8
usemtl Rock
f 8 9 10
f 15 7 8
f 10 11 8
f 12 13 11
f 12 11 10
f 15 11 14
f 11 13 14
f 8 11 15
