o Cliff_Terrain_Side_Top
v 0.25000000 1.00000000 0.00000000
v 0.12500000 0.93301270 0.00000000
v -0.25000000 0.86602540 0.50000000
v -0.00000000 1.00000000 0.50000000
v 0.25000000 1.05000000 0.00000000
v -0.00000000 1.05000000 0.50000000
v -0.00000000 1.00000000 -0.50000000
v -0.00000000 1.05000000 -0.50000000
v 0.15000000 1.15000000 0.00000000
v -0.10000000 1.15000000 -0.50000000
v -0.00000000 1.20000000 0.00000000
v -0.25000000 1.20000000 -0.50000000
v -0.25000000 1.20000000 0.50000000
v -0.10000000 1.15000000 0.50000000
v -0.50000000 1.20000000 -0.50000000
v -0.50000000 1.20000000 0.50000000
v -0.25000000 0.86602540 -0.50000000
v -0.21650635 0.25000000 0.00000000
v -0.43301270 0.50000000 -0.50000000
v -0.25000000 -0.00000000 0.00000000
v -0.50000000 0.00000000 -0.50000000
v -0.50000000 0.00000000 0.50000000
v -0.43301270 0.50000000 0.50000000
f 4 3 2
f 4 2 1
f 1 5 6
f 1 6 4
f 5 1 8
f 1 7 8
f 9 5 8
f 9 8 10
f 11 9 10
f 11 10 12
f 9 11 14
f 11 13 14
f 16 13 11
f 11 12 15
f 15 16 11
f 5 9 6
f 9 14 6
f 17 7 2
f 7 1 2
f 19 17 18
f 17 2 18
f 21 19 18
f 21 18 20
f 23 22 18
f 22 20 18
f 3 23 18
f 3 18 2
