o object1
g object1
v -0.00882824 0.75000000 -0.68579351
v 0.12186058 0.06698730 -1.00130424
v -0.50000000 0.13397460 -0.75000000
v -0.50000000 0.50000000 -0.56698730
v -0.02164571 1.00000000 -0.65484942
v -0.50000000 1.00000000 -0.50000000
v 0.20710678 1.00000000 -0.20710678
v 0.25447395 0.50000000 -0.25447395
v 0.65484942 1.00000000 0.02164571
v 0.68579351 0.75000000 0.00882824
v 0.50000000 1.00000000 0.50000000
v 0.56698730 0.50000000 0.50000000
v 1.00130424 0.06698730 -0.12186058
v 0.75000000 0.13397460 0.50000000
v 1.11678918 0.00000000 -0.16969601
v 1.00000000 0.00000000 0.50000000
v 0.56066017 0.00000000 -0.56066017
v 0.38388348 0.13397460 -0.38388348
v 0.16969601 0.00000000 -1.11678918
v -0.50000000 0.00000000 -1.00000000
usemtl Rock
f 1 2 3
f 1 3 4
f 5 1 6
f 1 4 6
f 1 5 7
f 1 7 8
f 8 7 10
f 7 9 10
f 10 9 11
f 10 11 12
f 13 10 14
f 10 12 14
f 15 13 16
f 13 14 16
f 17 18 13
f 17 13 15
f 19 2 17
f 2 18 17
f 18 8 10
f 18 10 13
f 2 1 18
f 1 8 18
f 2 19 20
f 2 20 3
