o object1
g object1
v 0.13142766 1.15000000 -1.02440123
v 0.16969601 1.05000000 -1.11678918
v -0.50000000 1.05000000 -1.00000000
v -0.50000000 1.15000000 -0.90000000
v 0.48994949 1.15000000 -0.48994949
v 0.56066017 1.05000000 -0.56066017
v 1.02440123 1.15000000 -0.13142766
v 1.11678918 1.05000000 -0.16969601
v 0.90000000 1.15000000 0.50000000
v 1.00000000 1.05000000 0.50000000
v 1.11678918 1.00000000 -0.16969601
v 1.00000000 1.00000000 0.50000000
v 1.00130424 0.93301270 -0.12186058
v 0.75000000 0.86602540 0.50000000
v 0.38388348 0.86602540 -0.38388348
v 0.56066017 1.00000000 -0.56066017
v 0.12186058 0.93301270 -1.00130424
v 0.16969601 1.00000000 -1.11678918
v -0.50000000 0.86602540 -0.75000000
v -0.50000000 1.00000000 -1.00000000
v -0.00882824 0.25000000 -0.68579351
v -0.50000000 0.50000000 -0.56698730
v -0.02164571 -0.00000000 -0.65484942
v -0.50000000 0.00000000 -0.50000000
v 0.25447395 0.50000000 -0.25447395
v 0.20710678 0.00000000 -0.20710678
v 0.68579351 0.25000000 0.00882824
v 0.65484942 -0.00000000 0.02164571
v 0.56698730 0.50000000 0.50000000
v 0.50000000 0.00000000 0.50000000
v 0.88581930 1.20000000 -0.07402515
v 0.75000000 1.20000000 0.50000000
v 0.38388348 1.20000000 -0.38388348
v 0.07402515 1.20000000 -0.88581930
v -0.50000000 1.20000000 -0.75000000
v -0.50000000 1.20000000 0.50000000
usemtl Grass
f 1 2 3
f 1 3 4
f 5 6 1
f 6 2 1
f 7 8 6
f 7 6 5
f 8 7 10
f 7 9 10
f 11 8 10
f 11 10 12
f 13 11 12
f 13 12 14
f 15 16 13
f 16 11 13
f 17 18 16
f 17 16 15
f 18 17 20
f 17 19 20
usemtl Rock
f 17 21 19
f 21 22 19
f 21 23 24
f 21 24 22
f 23 21 26
f 21 25 26
f 26 25 27
f 26 27 28
f 28 27 30
f 27 29 30
f 21 17 15
f 21 15 25
f 25 15 27
f 15 13 27
f 27 13 14
f 27 14 29
usemtl Grass
f 7 31 9
f 31 32 9
f 32 31 33
f 33 35 36
f 33 34 35
f 33 36 32
f 31 7 5
f 31 5 33
f 8 11 6
f 11 16 6
f 33 5 34
f 5 1 34
f 6 16 2
f 16 18 2
f 34 1 4
f 34 4 35
f 2 18 20
f 2 20 3
