o object1
g object1
v 0.50000000 0.00000000 0.23205081
v 0.50000000 1.00000000 0.23205081
v 1.04706667 1.00000000 0.19037020
v 1.04706667 0.00000000 0.19037020
v 0.26256313 0.00000000 -0.26256313
v 0.26256313 1.00000000 -0.26256313
v -0.23205081 0.00000000 -0.50000000
v -0.23205081 1.00000000 -0.50000000
v -0.19037020 0.00000000 -1.04706667
v -0.19037020 1.00000000 -1.04706667
v -0.50000000 0.00000000 -1.50000000
v -0.50000000 1.00000000 -1.50000000
v 1.50000000 1.00000000 0.50000000
v 1.50000000 0.00000000 0.50000000
usemtl Rock
f 1 2 4
f 2 3 4
f 5 6 2
f 5 2 1
f 7 8 6
f 7 6 5
f 9 10 8
f 9 8 7
f 10 9 12
f 9 11 12
f 4 3 13
f 4 13 14
