o object1
g object1
v -0.43301270 0.50000000 0.50000000
v -0.21650635 0.25000000 0.00000000
v 0.12500000 0.93301270 0.00000000
v 0.12500000 0.93301270 0.50000000
v 0.18750000 0.96650635 0.50000000
v 0.18750000 0.96650635 0.00000000
v 0.18750000 1.00000000 0.00000000
v 0.18750000 1.00000000 0.50000000
v -0.50000000 1.00000000 0.50000000
v -0.50000000 1.00000000 0.00000000
v -0.50000000 1.05000000 -0.15000000
v 0.17500000 1.05000000 -0.15000000
v 0.02500000 1.15000000 -0.25000000
v -0.50000000 1.15000000 -0.25000000
v -0.20000000 1.20000000 -0.40000000
v -0.50000000 1.20000000 -0.40000000
v -0.25000000 1.20000000 -0.50000000
v -0.50000000 1.20000000 -0.50000000
v -0.10000000 1.15000000 -0.50000000
v -0.00000000 1.05000000 -0.50000000
v -0.00000000 1.00000000 -0.50000000
v 0.17500000 1.00000000 -0.15000000
v -0.25000000 0.86602540 -0.50000000
v -0.50000000 -0.00000000 0.50000000
v -0.25000000 -0.00000000 0.00000000
v -0.43301270 0.50000000 -0.50000000
v -0.50000000 -0.00000000 -0.50000000
usemtl Rock
f 1 2 3
f 3 4 1
usemtl Grass
f 4 3 6
f 4 6 5
usemtl Dirt
f 5 6 7
f 5 7 8
f 8 7 9
f 7 10 9
f 7 12 10
f 12 11 10
usemtl Grass
f 11 12 13
f 11 13 14
f 14 13 15
f 14 15 16
f 18 16 17
f 16 15 17
f 17 15 19
f 15 13 19
f 19 13 20
f 13 12 20
f 20 12 22
f 20 22 21
usemtl Dirt
f 12 7 22
f 7 6 22
usemtl Grass
f 22 6 3
f 23 21 3
f 21 22 3
usemtl Rock
f 24 25 2
f 24 2 1
f 26 2 27
f 2 25 27
f 23 3 2
f 23 2 26
