o object1
g object1
v -0.25000000 1.15000000 0.50000000
v -0.25000000 1.15000000 -0.50000000
v -0.40000000 1.20000000 -0.50000000
v -0.40000000 1.20000000 0.50000000
v -0.50000000 1.20000000 0.50000000
v -0.50000000 1.20000000 -0.50000000
v -0.15000000 1.05000000 0.50000000
v -0.15000000 1.05000000 -0.50000000
v -0.10908969 0.89857613 0.50000000
v -0.10908969 0.89857613 -0.50000000
v -0.14133775 0.75221954 0.50000000
v -0.14133775 0.75221954 -0.50000000
v -0.23312070 0.64803350 0.50000000
v -0.23312070 0.64803350 -0.50000000
v -0.35000000 0.60000000 0.50000000
v -0.35000000 0.60000000 -0.50000000
v -0.43376487 0.53372233 0.50000000
v -0.43376487 0.53372233 -0.50000000
v -0.47567743 0.45053225 0.50000000
v -0.47567743 0.45053225 -0.50000000
v -0.50000000 0.30000000 0.50000000
v -0.50000000 0.30000000 -0.50000000
v -0.50000000 -0.00000000 -0.50000000
v -0.50000000 -0.00000000 0.50000000
usemtl Grass
f 1 2 4
f 2 3 4
f 3 6 4
f 6 5 4
f 7 8 1
f 8 2 1
f 9 10 7
f 10 8 7
f 11 12 10
f 11 10 9
f 13 14 12
f 13 12 11
f 15 16 14
f 15 14 13
usemtl Dirt
f 17 18 16
f 17 16 15
f 19 20 18
f 19 18 17
f 21 22 20
f 21 20 19
f 24 23 22
f 24 22 21
