o object1
g object1
v -0.45000000 0.35000000 0.50000000
v -0.50000000 0.50000000 0.50000000
v -0.50000000 0.50000000 -0.50000000
v -0.45000000 0.35000000 -0.50000000
v -0.32500000 0.17500000 0.50000000
v -0.32500000 0.17500000 -0.50000000
v -0.15000000 0.05000000 0.50000000
v -0.15000000 0.05000000 -0.50000000
v 0.00000000 -0.00000000 0.50000000
v 0.00000000 -0.00000000 -0.50000000
v -0.50000000 1.00000000 -0.50000000
v -0.50000000 1.00000000 0.50000000
usemtl Dirt
f 4 3 1
f 3 2 1
f 6 4 5
f 4 1 5
f 8 6 5
f 8 5 7
f 10 8 9
f 8 7 9
f 11 12 3
f 12 2 3
