o Bush_1_A_Color1
v -0 0.22372 0
v -0.02999 0.21019 0.05746
v -0.06653 0.2088 -0
v -0.04897 0.1688 0.09438
v -0.10738 0.16833 -0
v -0.13291 0.10865 -0
v -0.04897 0.1688 -0.09438
v -0.02999 0.21019 -0.05746
v 0.02999 0.21019 -0.05746
v 0.04897 0.1688 -0.09438
v 0.06121 0.10866 -0.11704
v 0.10738 0.16833 0
v 0.06653 0.2088 0
v 0.02999 0.21019 0.05746
v 0.04897 0.1688 0.09438
v 0.06121 0.10866 0.11704
v -0.06121 0.10866 0.11704
v -0 0.02284 0.11675
v 0.06241 0.04973 0.11637
v -0.06241 0.04973 0.11637
v -0.10141 0.02284 0.05498
v -0.06221 0.00132 0.03273
v -0.13359 0.04973 -0
v -0.10141 0.02284 -0.05498
v -0.06221 0.00132 -0.03273
v -0.06241 0.04973 -0.11637
v -0.06121 0.10866 -0.11704
v 0 0.02284 -0.11675
v 0 0.00132 -0.07073
v 0.06241 0.04973 -0.11637
v 0.10141 0.02284 -0.05498
v 0.06221 0.00132 -0.03273
v 0.13359 0.04973 0
v 0.13291 0.10865 0
v 0.10141 0.02284 0.05498
v 0.06221 0.00132 0.03273
v -0 0.00132 0.07073
v 0 -0.00293 0
vn -0.2689 0.8429 0.4661
vn -0.5509 0.8346 0
vn -0.8451 0.5346 -0
vn -0.4121 0.5346 0.7378
vn -0.9806 0.1962 -0
vn -0.4758 0.1886 0.8591
vn -0.4758 0.1886 -0.8591
vn -0.4121 0.5346 -0.7378
vn 0 1 -0
vn 0.5509 0.8346 0
vn 0.2689 0.8429 -0.4661
vn -0.2689 0.8429 -0.4661
vn 0.4121 0.5346 -0.7378
vn 0.4758 0.1886 -0.8591
vn 0.9806 0.1962 0
vn 0.8451 0.5346 0
vn -0.4737 -0.2973 0.829
vn -0.9589 -0.2839 -0
vn -0.7093 -0.5708 0.4136
vn 0.2689 0.8429 0.4661
vn 0.4758 0.1886 0.8591
vn 0.4737 -0.2973 0.829
vn 0.4121 0.5346 0.7378
vn 0.9589 -0.2839 0
vn -0 -0.5902 0.8072
vn -0.7093 -0.5708 -0.4136
vn -0.4737 -0.2973 -0.829
vn -0 -0.9524 0.305
vn -0.2677 -0.9518 0.1495
vn 0.7093 -0.5708 -0.4136
vn 0.7093 -0.5708 0.4136
vn 0.2677 -0.9518 0.1495
vn 0.2677 -0.9518 -0.1495
vn -0 -0.5902 -0.8072
vn 0.4737 -0.2973 -0.829
vn -0 -0.9524 -0.305
vn -0.2677 -0.9518 -0.1495
vn -0 -1 0
f 2//1 3//2 5//3 4//4
f 4//4 5//3 6//5 17//6
f 27//7 6//5 5//3 7//8
f 1//9 13//10 9//11
f 1//9 9//11 8//12
f 3//2 1//9 8//12
f 8//12 9//11 10//13 7//8
f 7//8 10//13 11//14 27//7
f 34//15 11//14 10//13 12//16
f 13//10 12//16 10//13 9//11
f 20//17 23//18 21//19
f 5//3 3//2 8//12 7//8
f 1//9 14//20 13//10
f 16//21 17//6 20//17 19//22
f 14//20 2//1 4//4 15//23
f 34//15 16//21 19//22 33//24
f 19//22 20//17 18//25
f 1//9 2//1 14//20
f 23//18 24//26 21//19
f 23//18 26//27 24//26
f 14//20 15//23 12//16 13//10
f 37//28 18//25 21//19 22//29
f 31//30 35//31 36//32 32//33
f 26//27 28//34 24//26
f 26//27 30//35 28//34
f 17//6 6//5 23//18 20//17
f 30//35 31//30 28//34
f 30//35 33//24 31//30
f 27//7 26//27 23//18 6//5
f 24//26 28//34 29//36 25//37
f 33//24 35//31 31//30
f 33//24 19//22 35//31
f 27//7 11//14 30//35 26//27
f 28//34 31//30 32//33 29//36
f 19//22 18//25 35//31
f 34//15 12//16 15//23 16//21
f 34//15 33//24 30//35 11//14
f 36//32 37//28 38//38
f 35//31 18//25 37//28 36//32
f 29//36 38//38 25//37
f 29//36 32//33 38//38
f 32//33 36//32 38//38
f 37//28 22//29 38//38
f 22//29 25//37 38//38
f 21//19 24//26 25//37 22//29
f 1//9 3//2 2//1
f 21//19 18//25 20//17
f 17//6 16//21 15//23 4//4
