v -0.163339 0.000000 0.163340
v -0.163339 0.100661 0.264000
v -0.264000 0.100660 0.163340
v -0.163339 0.427339 0.264000
v -0.163339 0.528000 0.163340
v -0.264000 0.427340 0.163340
v -0.163339 0.000000 -0.163340
v -0.264000 0.100661 -0.163340
v -0.163339 0.100660 -0.264000
v -0.163339 0.528000 -0.163340
v -0.163339 0.427339 -0.264000
v -0.264000 0.427340 -0.163340
v 0.163340 0.000000 0.163340
v 0.264000 0.100661 0.163340
v 0.163340 0.100661 0.264000
v 0.163340 0.528000 0.163340
v 0.163340 0.427339 0.264000
v 0.264000 0.427339 0.163340
v 0.163340 0.000000 -0.163340
v 0.163340 0.100661 -0.264000
v 0.264000 0.100661 -0.163340
v 0.163340 0.528000 -0.163340
v 0.264000 0.427339 -0.163340
v 0.163340 0.427339 -0.264000
f 15 17 4 2
f 21 23 18 14
f 22 10 5 16
f 3 6 12 8
f 9 11 24 20
f 1 2 3
f 4 5 6
f 7 8 9
f 10 11 12
f 13 14 15
f 16 17 18
f 19 20 21
f 22 23 24
f 7 1 3 8
f 2 4 6 3
f 5 10 12 6
f 11 9 8 12
f 19 7 9 20
f 10 22 24 11
f 23 21 20 24
f 13 19 21 14
f 22 16 18 23
f 17 15 14 18
f 1 13 15 2
f 16 5 4 17
f 7 19 13 1
