v -0.056864 -0.031076 0.079605
v 0.056864 -0.031076 0.079605
v -0.047395 0.672371 -0.036448
v 0.047406 0.672370 -0.036447
v -0.000000 -0.031267 0.055947
v 0.000006 0.887490 -0.147737
v 0.000006 0.667531 -0.059425
v -0.072799 0.440003 0.027823
v -0.077506 0.205654 0.066416
v 0.077519 0.205654 0.066416
v 0.072811 0.440001 0.027823
v 0.000006 0.205406 0.043025
v 0.000006 0.439265 0.004415
v -0.056864 -0.031076 0.053294
v 0.056864 -0.031076 0.053294
v -0.047395 0.672371 -0.062758
v 0.047406 0.672370 -0.062758
v -0.000000 -0.031267 0.029636
v 0.000006 0.887490 -0.174047
v 0.000006 0.667531 -0.085736
v -0.072799 0.440003 0.001513
v -0.077506 0.205654 0.040106
v 0.077519 0.205654 0.040106
v 0.072811 0.440001 0.001513
v 0.000006 0.205406 0.016715
v 0.000006 0.439265 -0.021895
f 7 4 6
f 3 7 6
f 13 11 4 7
f 8 13 7 3
f 1 5 12 9
f 9 12 13 8
f 5 2 10 12
f 12 10 11 13
f 20 19 17
f 16 19 20
f 26 20 17 24
f 21 16 20 26
f 14 22 25 18
f 22 21 26 25
f 18 25 23 15
f 25 26 24 23
f 10 23 24 11
f 6 19 16 3
f 3 16 21 8
f 9 22 14 1
f 8 21 22 9
f 4 17 19 6
f 2 15 23 10
f 11 24 17 4
