o Grass_1_A_Color1
v -0.12485 -0.02 -0.00422
v 0.12484 -0.02 -0.00422
v -0.10405 0.44368 -0.04114
v 0.10405 0.44368 -0.04114
v -0.00001 -0.02 -0.04283
v 0 0.53115 -0.07838
v 0 0.43779 -0.07104
v -0.16118 0.29492 -0.00441
v -0.16962 0.1363 0.01023
v 0.16963 0.1363 0.01023
v 0.16119 0.29492 -0.00441
v 0 0.13158 -0.04553
v 0 0.28437 -0.05944
v -0.11277 -0.02 0.04299
v 0.11274 -0.02 0.04299
v -0.08672 0.45138 0.00523
v 0.08672 0.45138 0.00523
v -0.00001 -0.02 0.02391
v 0 0.53934 -0.0536
v 0 0.44896 -0.01346
v -0.13562 0.30416 0.04832
v -0.14335 0.14967 0.07339
v 0.14335 0.14967 0.07339
v 0.13562 0.30416 0.04832
v 0 0.1503 0.05216
v 0 0.30276 0.02743
vn 0.2945 -0.0844 -0.9519
vn 0.2793 -0.0753 -0.9572
vn 0.3008 -0.0882 -0.9496
vn -0.3008 -0.0882 -0.9496
vn -0.2793 -0.0753 -0.9572
vn -0.2945 -0.0844 -0.9519
vn 0.3145 -0.0853 -0.9454
vn 0.3151 -0.0844 -0.9453
vn -0.3151 -0.0844 -0.9453
vn -0.3145 -0.0853 -0.9454
vn -0.3053 -0.008 -0.9522
vn -0.3134 -0.0463 -0.9485
vn -0.3127 -0.0428 -0.9489
vn 0.3053 -0.0081 -0.9522
vn 0.3127 -0.0428 -0.9489
vn 0.3134 -0.0464 -0.9485
vn -0.1901 0.324 0.9268
vn -0.1834 0.2905 0.9391
vn -0.2039 0.3973 0.8947
vn 0.1834 0.2905 0.9391
vn 0.1901 0.324 0.9268
vn 0.2039 0.3973 0.8947
vn -0.1613 0.2003 0.9664
vn -0.1593 0.1934 0.9681
vn 0.1593 0.1934 0.9681
vn 0.1613 0.2003 0.9664
vn 0.154 -0.1545 0.9759
vn 0.1528 0.0005 0.9883
vn 0.1527 0.0066 0.9883
vn -0.154 -0.1545 0.9759
vn -0.1527 0.0066 0.9883
vn -0.1528 0.0005 0.9883
vn -0.6768 0.7362 0.0005
vn -0.8016 0.574 0.1673
vn -0.7992 0.5784 0.1634
vn -0.9034 0.2391 0.356
vn -0.9014 0.2514 0.3526
vn -0.9233 -0.0973 0.3716
vn -0.903 -0.2562 0.3449
vn -0.9245 -0.0599 0.3764
vn 0.8016 0.574 0.1673
vn 0.6768 0.7362 0.0005
vn 0.7992 0.5784 0.1634
vn 0.9029 -0.2563 0.3449
vn 0.9233 -0.0974 0.3716
vn 0.9245 -0.0599 0.3764
vn 0.9034 0.2391 0.3561
vn 0.9014 0.2514 0.3526
f 7//1 6//2 4//3
f 3//4 6//5 7//6
f 13//7 7//1 4//3 11//8
f 8//9 3//4 7//6 13//10
f 1//11 9//12 12//13 5//11
f 9//12 8//9 13//10 12//13
f 5//14 12//15 10//16 2//14
f 12//15 13//7 11//8 10//16
f 20//17 17//18 19//19
f 16//20 20//21 19//22
f 26//23 24//24 17//18 20//17
f 21//25 26//26 20//21 16//20
f 14//27 18//27 25//28 22//29
f 22//29 25//28 26//26 21//25
f 18//30 15//30 23//31 25//32
f 25//32 23//31 24//24 26//23
f 6//33 3//34 16//35 19//33
f 3//34 8//36 21//37 16//35
f 9//38 1//39 14//39 22//40
f 8//36 9//38 22//40 21//37
f 4//41 6//42 19//42 17//43
f 2//44 10//45 23//46 15//44
f 11//47 4//41 17//43 24//48
f 10//45 11//47 24//48 23//46
