v -0.017228 -0.316142 0.303603
v 0.411041 0.230251 0.037351
v 0.278566 0.142906 -0.276482
v -0.283758 0.306174 -0.217513
v 0.356098 0.287636 0.208052
v 0.271585 0.204074 0.318582
v 0.421616 0.031921 0.038927
v 0.207352 -0.380444 0.168428
v 0.057191 -0.463424 0.178934
v 0.352856 -0.216768 -0.187778
v 0.314699 -0.215472 0.123535
v 0.426774 0.049921 -0.155557
v 0.040096 0.392097 0.234252
v 0.108609 0.327416 0.350996
v 0.307356 0.329651 0.031837
v 0.060511 0.390133 0.032056
v -0.279774 0.061829 0.250348
v 0.081323 0.150754 0.392579
v -0.094923 0.232965 0.300005
v -0.151883 -0.176737 0.310804
v -0.297716 -0.172155 0.162210
v -0.165988 -0.380552 0.132879
v 0.153359 -0.243108 -0.347175
v 0.046915 -0.458799 -0.129000
v -0.088199 -0.261101 -0.320271
v 0.287718 -0.039199 -0.340847
v -0.357871 0.219839 0.129940
v -0.482817 0.172019 -0.244862
v -0.529520 0.161407 -0.126798
v -0.365608 -0.151637 -0.185557
v -0.403156 0.031228 -0.312215
v -0.126528 0.170588 -0.392946
v -0.045679 0.289906 -0.268469
v -0.085675 -0.081373 -0.414900
v -0.474411 0.037324 -0.036224
v -0.456102 0.243989 -0.133574
v 0.086036 -0.011864 -0.411732
v -0.062616 -0.465302 -0.005475
v -0.169245 0.340748 0.094488
v 0.162955 -0.421788 -0.159903
v -0.032597 -0.021811 0.357660
v 0.223667 0.393566 0.247455
v 0.176145 -0.457132 -0.020894
v 0.138824 -0.263533 0.283249
f 18 6 14
f 40 43 24
f 2 12 15
f 3 37 32
f 4 32 28
f 4 33 32
f 33 3 32
f 32 31 28
f 32 34 31
f 34 25 31
f 32 37 34
f 25 30 31
f 30 35 31
f 31 35 28
f 35 29 28
f 29 36 28
f 35 36 29
f 36 4 28
f 35 27 36
f 27 39 36
f 36 39 4
f 16 33 4
f 15 33 16
f 15 3 33
f 26 37 3
f 26 23 37
f 37 23 34
f 23 25 34
f 24 38 25
f 25 38 30
f 22 35 30
f 22 21 35
f 20 17 21
f 21 17 35
f 17 27 35
f 19 27 17
f 19 39 27
f 18 14 19
f 14 13 19
f 19 13 39
f 15 12 3
f 3 12 26
f 12 10 26
f 23 40 25
f 40 24 25
f 26 10 23
f 10 40 23
f 38 22 30
f 22 20 21
f 24 43 38
f 43 9 38
f 38 9 22
f 9 1 22
f 22 1 20
f 20 41 17
f 17 41 19
f 41 18 19
f 1 41 20
f 39 16 4
f 13 16 39
f 14 42 13
f 13 42 16
f 42 15 16
f 14 6 42
f 6 5 42
f 42 5 15
f 5 2 15
f 7 12 2
f 11 10 7
f 7 10 12
f 11 43 10
f 10 43 40
f 11 8 43
f 8 9 43
f 8 44 9
f 44 1 9
f 5 7 2
f 5 6 7
f 6 11 7
f 44 41 1
f 44 18 41
f 8 11 44
f 11 6 44
f 6 18 44
