o Rock_1_A_Color1
v -0 0 0
v -0.31953 0.29693 0
v -0.09874 0.29693 -0.30389
v 0.2585 0.29693 -0.18781
v 0.16399 0.29693 0.11914
v -0.06264 0.29693 0.19278
v -0.31953 0.51527 0
v -0.01337 0.54027 -0.04114
v -0.09874 0.51527 -0.30389
v 0.2585 0.51527 -0.18781
v 0.16399 0.51527 0.11914
v -0.06264 0.51527 0.19278
v 0.2335 0.29693 0.16965
v 0.2585 0.27193 0.18781
v -0.09874 0.27193 0.30389
v -0.08919 0.29693 0.2745
v -0.28483 0.54027 -0.00522
v -0.08919 0.54027 -0.2745
v 0.22737 0.54027 -0.17164
v 0.14391 0.54027 0.09938
v -0.05801 0.54027 0.16499
v -0.31953 0 0
v -0.09874 0 -0.30389
v 0.2585 0 -0.18781
v 0.2585 0 0.18781
v -0.09874 0 0.30389
vn 0 1 0
vn -0.809 0 0.5878
vn -0.809 0 -0.5878
vn 1 0 0
vn 0.309 0 -0.9511
vn 0.309 0 0.9511
vn -0.6002 0 0.7998
vn 0.9557 0 0.2943
vn -0.5721 0.7071 -0.4156
vn 0.2185 0.7071 -0.6725
vn 0.6758 0.7071 0.2081
vn 0.473 0.7479 0.4657
vn -0.1089 0.7479 0.6548
vn -0.4244 0.7071 0.5656
vn 0.6886 0.7236 0.0482
vn -0.5288 0.7236 0.4437
vn 0.2185 0.7071 0.6725
vn 0 -1 0
f 6//1 2//1 16//1
f 22//2 26//2 15//2 2//2
f 23//3 22//3 2//3 3//3
f 25//4 24//4 4//4 14//4
f 24//5 23//5 3//5 4//5
f 26//6 25//6 14//6 15//6
f 4//1 5//1 13//1
f 2//7 6//7 12//7 7//7
f 5//8 4//8 10//8 11//8
f 4//5 3//5 9//5 10//5
f 6//6 5//6 11//6 12//6
f 17//9 18//9 9//9 7//9
f 18//10 19//10 10//10 9//10
f 19//11 20//12 11//12 10//11
f 20//12 21//13 12//13 11//12
f 21//13 17//14 7//14 12//13
f 3//3 2//3 7//3 9//3
f 13//15 14//15 4//15
f 15//16 16//16 2//16
f 13//17 16//17 15//17 14//17
f 5//1 6//1 16//1 13//1
f 8//1 18//1 17//1
f 8//1 19//1 18//1
f 8//1 20//1 19//1
f 8//1 21//1 20//1
f 8//1 17//1 21//1
f 1//18 22//18 23//18
f 1//18 23//18 24//18
f 1//18 24//18 25//18
f 1//18 25//18 26//18
f 1//18 26//18 22//18
