v -0.084957 0.000000 0.216350
v -0.210016 0.000000 0.089608
v -0.210016 0.000000 -0.089608
v -0.084957 0.000000 -0.216350
v 0.091934 0.000000 -0.216357
v 0.217047 0.000000 -0.089633
v 0.217047 0.000000 0.089633
v 0.091934 0.000000 0.216357
v -0.101468 1.219892 0.046508
v -0.037194 1.205914 0.112502
v -0.101468 1.219892 -0.046508
v -0.037194 1.205914 -0.112502
v 0.054138 1.186146 -0.112809
v 0.119043 1.172168 -0.046831
v 0.119043 1.172168 0.046831
v 0.054138 1.186146 0.112809
v -0.020930 2.502992 0.034008
v 0.026522 2.504848 0.082102
v -0.020930 2.502992 -0.034008
v 0.026522 2.504848 -0.082102
v 0.093628 2.507471 -0.082102
v 0.141079 2.509326 -0.034008
v 0.141079 2.509326 0.034008
v 0.093628 2.507471 0.082102
v -0.007096 -0.342125 0.000000
v 0.006972 0.993964 -0.074432
v 0.036356 0.944749 -0.033042
v 0.071567 0.944749 0.029174
v 0.091980 0.993964 0.075776
v 0.085590 1.063584 0.079489
v 0.056114 1.112715 0.038093
v 0.020954 1.112715 -0.024034
v 0.000581 1.063584 -0.070719
v 0.670139 1.655547 -0.399038
v 0.696580 1.654948 -0.391757
v 0.710593 1.654948 -0.366997
v 0.703440 1.655548 -0.340196
v 0.680344 1.656665 -0.326774
v 0.653880 1.657693 -0.334035
v 0.639859 1.657693 -0.358810
v 0.647040 1.656665 -0.385621
v 0.630065 1.427348 -0.384843
v 0.624214 1.433100 -0.352221
v 0.640365 1.433101 -0.323683
v 0.671107 1.427348 -0.312322
v 0.701850 1.418490 -0.326918
v 0.712420 1.411606 -0.362294
v 0.693498 1.411606 -0.395729
v 0.658026 1.418490 -0.404354
v 0.561490 1.206970 -0.369639
v 0.604028 1.179381 -0.353409
v 0.631181 1.179381 -0.305430
v 0.623520 1.206970 -0.260034
v 0.589841 1.241092 -0.246549
v 0.553842 1.261271 -0.266807
v 0.532065 1.261271 -0.305286
v 0.532993 1.241092 -0.346998
v 0.319109 1.112881 -0.242846
v 0.329826 1.150752 -0.196722
v 0.359218 1.150752 -0.144787
v 0.393093 1.112881 -0.112118
v 0.412896 1.053769 -0.119184
v 0.404172 1.008803 -0.166504
v 0.371030 1.008803 -0.225064
v 0.335130 1.053769 -0.256594
v 0.017605 2.070096 0.077981
v -0.011668 2.034139 0.035630
v -0.017937 2.034139 -0.026809
v 0.002319 2.070096 -0.074265
v 0.038098 2.121859 -0.078272
v 0.067893 2.158233 -0.035972
v 0.074225 2.158233 0.027092
v 0.053448 2.121859 0.074606
v -0.193512 2.517454 0.060739
v -0.173728 2.520445 0.036724
v -0.176895 2.520445 0.005187
v -0.201046 2.517454 -0.014299
v -0.230931 2.513399 -0.010388
v -0.249101 2.510693 0.013462
v -0.246100 2.510693 0.043352
v -0.223562 2.513399 0.063006
v -0.209169 2.328686 0.079684
v -0.241695 2.319965 0.050268
v -0.246161 2.319965 0.005789
v -0.220148 2.328686 -0.029662
v -0.177025 2.341495 -0.035462
v -0.141938 2.350876 -0.006309
v -0.137203 2.350876 0.040852
v -0.165777 2.341495 0.076567
v -0.095962 2.222232 0.082602
v -0.068292 2.248335 0.039349
v -0.074141 2.248335 -0.018898
v -0.109840 2.222232 -0.055618
v -0.152854 2.187082 -0.049575
v -0.178364 2.163324 -0.006566
v -0.172831 2.163324 0.048536
v -0.139296 2.187082 0.085459
v -0.063391 -0.300010 0.137712
v -0.143010 -0.299979 0.057044
v -0.143010 -0.299979 -0.057044
v -0.063391 -0.300010 -0.137712
v 0.049197 -0.300055 -0.137710
v 0.128819 -0.300086 -0.057049
v 0.128819 -0.300086 0.057049
v 0.049197 -0.300055 0.137710
v -0.021012 2.481913 0.033613
v 0.936107 2.564679 -0.910968
v 0.856443 2.726092 -1.012837
v 1.036968 2.726880 -0.831620
v 0.910676 2.616012 -1.013509
v 1.002955 2.640523 -0.977890
v 0.981995 2.730705 -0.957402
v 1.038326 2.616569 -0.885369
v 0.335418 4.046108 -0.319017
v 0.936108 2.462431 0.864950
v 1.036968 2.632667 0.804743
v 0.856443 2.611086 0.984672
v 1.038327 2.516915 0.845476
v 1.002956 2.530093 0.940134
v 0.981995 2.622030 0.930132
v 0.910676 2.501656 0.972705
v 0.335419 4.002008 0.446934
v -0.839336 2.454679 -0.917301
v -0.960008 2.603154 -0.838743
v -0.779483 2.624735 -1.018673
v -0.947358 2.493542 -0.892452
v -0.914557 2.521720 -0.984729
v -0.905035 2.613790 -0.964133
v -0.819707 2.508802 -1.019681
v -0.430328 3.998665 -0.321748
v -0.839336 2.352430 0.858618
v -0.779482 2.509729 0.978837
v -0.960008 2.508941 0.797620
v -0.819707 2.394446 0.966534
v -0.914556 2.411290 0.933295
v -0.905035 2.505116 0.923402
v -0.947357 2.393889 0.838394
v -0.430327 3.954565 0.444203
v 0.555763 3.906267 -0.537911
v 0.502550 4.014084 -0.605956
v 0.623133 4.014611 -0.484910
v 0.538775 3.940554 -0.606405
v 0.600414 3.956927 -0.582613
v 0.586414 4.017166 -0.568928
v 0.624041 3.940927 -0.520813
v 0.006761 4.836722 -0.115640
v -0.032916 4.932270 0.044057
v 0.127345 4.837249 0.005406
v -0.014448 4.907423 -0.049850
v 0.051390 4.900074 -0.039787
v 0.061167 4.907753 0.026055
v 0.085672 4.853883 -0.073738
v 0.555763 3.837969 0.648332
v 0.623134 3.951680 0.608116
v 0.502550 3.937264 0.728302
v 0.624041 3.874362 0.635324
v 0.600414 3.883164 0.698552
v 0.586414 3.944575 0.691871
v 0.538776 3.864169 0.720308
v -0.032916 4.923985 0.187964
v 0.006761 4.810740 0.335639
v 0.127345 4.825156 0.215453
v -0.014448 4.888525 0.278398
v 0.051390 4.882380 0.267559
v 0.085672 4.832596 0.295984
v 0.061167 4.897563 0.203032
v -0.630164 3.832790 -0.542141
v -0.710768 3.931966 -0.489668
v -0.590184 3.946382 -0.609854
v -0.702318 3.858750 -0.525543
v -0.680409 3.877572 -0.587181
v -0.674048 3.939071 -0.573423
v -0.617053 3.868943 -0.610527
v -0.176785 4.923356 0.043544
v -0.203229 4.823712 -0.116389
v -0.323813 4.809298 0.003797
v -0.191378 4.896461 -0.050481
v -0.255874 4.881037 -0.040883
v -0.283951 4.830983 -0.075057
v -0.266993 4.887423 0.024885
v -0.630163 3.764493 0.644102
v -0.590184 3.869562 0.724404
v -0.710768 3.869035 0.603358
v -0.617052 3.792558 0.716186
v -0.680408 3.803808 0.693984
v -0.674048 3.866481 0.687375
v -0.702318 3.792186 0.630593
v -0.176785 4.915071 0.187451
v -0.323813 4.797204 0.213844
v -0.203229 4.797730 0.334890
v -0.266993 4.877233 0.201862
v -0.255874 4.863342 0.266463
v -0.283951 4.809696 0.294666
v -0.191378 4.877562 0.277767
v 1.006780 1.466703 -0.745076
v 0.999314 1.509482 -0.773629
v 1.043190 1.499997 -0.728740
v 0.951958 2.011119 -0.576455
v 1.006780 1.466703 -0.054924
v 1.043190 1.499997 -0.071261
v 0.999314 1.509482 -0.026372
v 0.951958 2.011119 -0.223546
v 0.332211 1.612534 -0.745076
v 0.312806 1.657894 -0.728739
v 0.356681 1.648409 -0.773628
v 0.607017 2.085690 -0.576455
v 0.332212 1.612534 -0.054924
v 0.356682 1.648409 -0.026372
v 0.312806 1.657894 -0.071261
v 0.607017 2.085690 -0.223545
v 1.020837 1.975932 -0.651214
v 1.015402 2.007075 -0.672000
v 1.047343 2.000170 -0.639321
v 0.910357 2.377532 -0.491048
v 0.908142 2.407978 -0.449771
v 0.942298 2.370626 -0.458369
v 1.020838 1.975932 -0.148787
v 1.047343 2.000170 -0.160680
v 1.015402 2.007075 -0.128001
v 0.908142 2.407978 -0.350230
v 0.910357 2.377532 -0.308953
v 0.942298 2.370626 -0.341632
v 0.529754 2.082097 -0.651214
v 0.515627 2.115119 -0.639321
v 0.547568 2.108214 -0.672000
v 0.810849 2.429012 -0.449771
v 0.796256 2.402198 -0.491048
v 0.764315 2.409103 -0.458369
v 0.529755 2.082097 -0.148786
v 0.547569 2.108214 -0.128001
v 0.515627 2.115119 -0.160680
v 0.810849 2.429012 -0.350230
v 0.764315 2.409103 -0.341632
v 0.796256 2.402198 -0.308953
f 2 9 11 3
f 3 11 12 4
f 4 12 13 5
f 5 13 14 6
f 6 14 15 7
f 7 15 16 8
f 8 16 10 1
f 9 17 19 11
f 16 24 18 10
f 16 15 23 24
f 13 21 22 14
f 11 19 20 12
f 14 22 23 15
f 12 20 21 13
f 10 18 17 9
f 4 5 102 101
f 7 8 105 104
f 5 6 103 102
f 3 4 101 100
f 6 7 104 103
f 1 2 99 98
f 2 3 100 99
f 8 1 98 105
f 1 10 9 2
f 60 55 56 59
f 53 46 45 54
f 28 63 62 29
f 63 52 53 62
f 58 57 50 65
f 56 43 42 57
f 52 47 46 53
f 45 38 39 44
f 49 34 35 48
f 44 39 40 43
f 33 58 65 26
f 46 37 38 45
f 42 41 34 49
f 43 40 41 42
f 50 49 48 51
f 54 45 44 55
f 64 51 52 63
f 65 50 51 64
f 61 54 55 60
f 62 53 54 61
f 26 65 64 27
f 27 64 63 28
f 48 35 36 47
f 30 61 60 31
f 32 59 58 33
f 29 62 61 30
f 59 56 57 58
f 57 42 49 50
f 51 48 47 52
f 31 60 59 32
f 47 36 37 46
f 55 44 43 56
f 82 81 80 83
f 87 76 75 88
f 83 80 79 84
f 96 83 84 95
f 88 75 74 89
f 89 74 81 82
f 95 84 85 94
f 73 90 97 66
f 69 94 93 70
f 92 87 88 91
f 97 82 83 96
f 68 95 94 69
f 90 89 82 97
f 85 78 77 86
f 86 77 76 87
f 84 79 78 85
f 91 88 89 90
f 67 96 95 68
f 71 92 91 72
f 94 85 86 93
f 93 86 87 92
f 66 97 96 67
f 72 91 90 73
f 70 93 92 71
f 25 98 99
f 25 99 100
f 25 100 101
f 25 101 102
f 25 102 103
f 25 103 104
f 25 104 105
f 25 105 98
f 125 130 114 108
f 133 138 130 124
f 109 114 122 116
f 117 122 138 132
f 107 110 111 113
f 108 112 111 110
f 109 113 111 112
f 115 118 119 121
f 116 120 119 118
f 117 121 119 120
f 123 126 127 129
f 124 128 127 126
f 125 129 127 128
f 131 134 135 137
f 132 136 135 134
f 133 137 135 136
f 115 107 113 118
f 118 113 109 116
f 108 114 112
f 112 114 109
f 122 117 120
f 122 120 116
f 131 115 121 134
f 134 121 117 132
f 138 133 136
f 138 136 132
f 123 131 137 126
f 126 137 133 124
f 130 125 128
f 130 128 124
f 107 123 129 110
f 110 129 125 108
f 115 131 123 107
f 169 175 146 140
f 183 189 176 168
f 188 160 147 174
f 141 148 162 154
f 155 161 190 182
f 139 142 143 145
f 140 144 143 142
f 141 145 143 144
f 146 149 150 152
f 147 151 150 149
f 148 152 150 151
f 153 156 157 159
f 154 158 157 156
f 155 159 157 158
f 160 163 164 166
f 161 165 164 163
f 162 166 164 165
f 167 170 171 173
f 168 172 171 170
f 169 173 171 172
f 174 177 178 180
f 175 179 178 177
f 176 180 178 179
f 181 184 185 187
f 182 186 185 184
f 183 187 185 186
f 188 191 192 194
f 189 193 192 191
f 190 194 192 193
f 153 139 145 156
f 156 145 141 154
f 140 146 152 144
f 144 152 148 141
f 147 160 166 151
f 151 166 162 148
f 161 155 158 165
f 165 158 154 162
f 181 153 159 184
f 184 159 155 182
f 160 188 194 163
f 163 194 190 161
f 189 183 186 193
f 193 186 182 190
f 167 181 187 170
f 170 187 183 168
f 188 174 180 191
f 191 180 176 189
f 175 169 172 179
f 179 172 168 176
f 139 167 173 142
f 142 173 169 140
f 174 147 149 177
f 177 149 146 175
f 153 181 167 139
f 205 206 198 196
f 209 210 206 204
f 197 198 202 200
f 201 202 210 208
f 195 196 197
f 199 200 201
f 203 204 205
f 207 208 209
f 199 195 197 200
f 196 198 197
f 202 201 200
f 207 199 201 208
f 210 209 208
f 203 207 209 204
f 206 205 204
f 195 203 205 196
f 199 207 203 195
f 225 227 214 212
f 231 233 228 224
f 232 220 215 226
f 213 216 222 218
f 219 221 234 230
f 211 212 213
f 214 215 216
f 217 218 219
f 220 221 222
f 223 224 225
f 226 227 228
f 229 230 231
f 232 233 234
f 217 211 213 218
f 212 214 216 213
f 215 220 222 216
f 221 219 218 222
f 229 217 219 230
f 220 232 234 221
f 233 231 230 234
f 223 229 231 224
f 232 226 228 233
f 227 225 224 228
f 211 223 225 212
f 226 215 214 227
f 217 229 223 211