o Tree_2_A_Color1
v 0.08446 0 -0.20573
v 0.2088 0 -0.08521
v 0.2088 0 0.08521
v 0.08446 0 0.20573
v -0.0914 0 0.20574
v -0.21579 0 0.08523
v -0.21579 0 -0.08523
v -0.0914 0 -0.20574
v 0.10324 1.18422 -0.04423
v 0.03795 1.18792 -0.10698
v 0.10324 1.18422 0.04423
v 0.03795 1.18792 0.10698
v -0.05481 1.19326 0.10727
v -0.12071 1.19713 0.04453
v -0.12071 1.19713 -0.04453
v -0.05481 1.19326 -0.10727
v -0.10209 2.32507 -0.03234
v -0.14781 2.3133 -0.07807
v -0.10209 2.32507 0.03234
v -0.14781 2.3133 0.07807
v -0.21247 2.29665 0.07807
v -0.25819 2.28488 0.03234
v -0.25819 2.28488 -0.03234
v -0.21247 2.29665 -0.07807
v 0.00707 -0.37352 -0
v -0.83209 1.96869 -0.53159
v -0.54628 2.26163 -0.67009
v -0.83888 1.97665 -0.49591
v -0.54634 2.26384 -0.66411
v -0.8542 2.0056 -0.47754
v -0.54894 2.26875 -0.661
v -0.86946 2.03926 -0.48679
v -0.55277 2.27387 -0.66231
v -0.87572 2.0579 -0.51908
v -0.5559 2.27642 -0.66771
v -0.8691 2.05007 -0.5551
v -0.55633 2.2744 -0.67437
v -0.85362 2.02084 -0.57366
v -0.55338 2.26884 -0.67791
v -0.83819 1.98703 -0.56407
v -0.54906 2.2635 -0.67591
v -0.63058 2.17165 -0.63069
v -0.64646 2.18183 -0.63269
v -0.6542 2.19645 -0.62341
v -0.649 2.20644 -0.60861
v -0.63442 2.20594 -0.5974
v -0.6193 2.19579 -0.59605
v -0.61196 2.18193 -0.60485
v -0.61641 2.17191 -0.61901
v -0.66177 2.09073 -0.55475
v -0.6568 2.10378 -0.53213
v -0.66772 2.1244 -0.51904
v -0.68861 2.14142 -0.52257
v -0.70806 2.14494 -0.54147
v -0.71419 2.13201 -0.5652
v -0.70261 2.11015 -0.57908
v -0.68057 2.093 -0.57444
v -0.74038 2.03695 -0.55319
v -0.76028 2.06414 -0.56223
v -0.77458 2.09114 -0.54509
v -0.7743 2.10102 -0.51251
v -0.76007 2.08865 -0.4848
v -0.74073 2.06227 -0.47741
v -0.7272 2.03673 -0.49363
v -0.72693 2.02605 -0.52455
v -0.13795 1.68033 0.0556
v -1.22716 2.23423 -0.77984
v -0.11611 1.63609 0.01879
v -1.2255 2.22707 -0.78908
v -0.08962 1.63558 -0.03474
v -1.21858 2.22707 -0.798
v -0.07335 1.67909 -0.07494
v -1.20989 2.23423 -0.80212
v -0.07699 1.74231 -0.07754
v -1.20382 2.24521 -0.79865
v -0.09852 1.78714 -0.04059
v -1.20438 2.25364 -0.7886
v -0.12528 1.78766 0.01349
v -1.21223 2.25364 -0.77847
v -0.14186 1.74355 0.05355
v -1.22204 2.24521 -0.77516
v -0.90998 2.06812 -0.51679
v -0.86717 2.08057 -0.51432
v -0.84654 2.08057 -0.54092
v -0.86091 2.06812 -0.58008
v -0.90048 2.05115 -0.6078
v -0.94126 2.03968 -0.6088
v -0.9608 2.03968 -0.58359
v -0.94847 2.05115 -0.5459
v -0.7439 1.85853 -0.37322
v -0.75571 1.83686 -0.42462
v -0.72662 1.83686 -0.46213
v -0.6724 1.85853 -0.46544
v -0.62265 1.89047 -0.43098
v -0.60784 1.91392 -0.3774
v -0.63868 1.91392 -0.33763
v -0.6959 1.89047 -0.3365
v -0.47741 1.79152 -0.16012
v -0.4334 1.83283 -0.18083
v -0.39531 1.83283 -0.22995
v -0.38703 1.79152 -0.27669
v -0.41286 1.73568 -0.2934
v -0.45625 1.69779 -0.27226
v -0.49228 1.69779 -0.22578
v -0.50116 1.73568 -0.17952
v -0.90495 2.34429 0.53065
v -0.88005 2.60522 0.78556
v -1.1419 2.63004 0.53065
v -0.89766 2.42072 0.7109
v -1.04561 2.4689 0.67782
v -1.06521 2.62277 0.7109
v -1.08282 2.43826 0.53065
v -0.7431 4.04034 0.78556
v -0.7182 4.30127 0.53065
v -1.00495 4.06515 0.53065
v -0.7255 4.22484 0.7109
v -0.87991 4.20531 0.67782
v -0.91065 4.24239 0.53065
v -0.92826 4.05788 0.7109
v -0.90495 2.34429 -0.87133
v -1.1419 2.63004 -0.87133
v -0.88005 2.60522 -1.12624
v -1.08282 2.43826 -0.87133
v -1.04561 2.4689 -1.0185
v -1.06521 2.62277 -1.05158
v -0.89766 2.42072 -1.05158
v -0.7182 4.30127 -0.87133
v -0.7431 4.04034 -1.12624
v -1.00495 4.06515 -0.87133
v -0.7255 4.22484 -1.05158
v -0.87991 4.20531 -1.0185
v -0.92826 4.05788 -1.05158
v -0.91065 4.24239 -0.87133
v 0.53521 2.20782 0.53065
v 0.82196 2.44394 0.53065
v 0.56011 2.46875 0.78556
v 0.72766 2.2667 0.53065
v 0.69691 2.30378 0.67782
v 0.74526 2.45121 0.7109
v 0.5425 2.28425 0.7109
v 0.72196 4.1648 0.53065
v 0.69706 3.90387 0.78556
v 0.95891 3.87906 0.53065
v 0.71467 4.08837 0.7109
v 0.86261 4.04019 0.67782
v 0.88221 3.88632 0.7109
v 0.89982 4.07083 0.53065
v 0.53521 2.20782 -0.87133
v 0.56011 2.46875 -1.12624
v 0.82196 2.44394 -0.87133
v 0.5425 2.28425 -1.05158
v 0.69691 2.30378 -1.0185
v 0.74526 2.45121 -1.05158
v 0.72766 2.2667 -0.87133
v 0.72196 4.1648 -0.87133
v 0.95891 3.87906 -0.87133
v 0.69706 3.90387 -1.12624
v 0.89982 4.07083 -0.87133
v 0.86261 4.04019 -1.0185
v 0.88221 3.88632 -1.05158
v 0.71467 4.08837 -1.05158
v -1.43699 2.11664 -0.20175
v -1.46537 2.27721 -0.04773
v -1.60352 2.27034 -0.2235
v -1.50294 3.16039 -0.05264
v -1.48823 3.32096 -0.20844
v -1.64109 3.15352 -0.22841
v -1.31847 2.11664 -1.05373
v -1.485 2.27034 -1.07549
v -1.30375 2.27721 -1.20953
v -1.36971 3.32096 -1.06043
v -1.34133 3.16039 -1.21444
v -1.52257 3.15352 -1.0804
v -0.55866 2.15442 -0.08699
v -0.40579 2.32187 -0.06702
v -0.58704 2.315 0.06703
v -0.6099 3.35874 -0.09368
v -0.62462 3.19817 0.06212
v -0.44337 3.20504 -0.07193
v -0.44014 2.15442 -0.93898
v -0.42542 2.315 -1.09477
v -0.28727 2.32187 -0.919
v -0.49138 3.35874 -0.94567
v -0.32485 3.20504 -0.92391
v -0.46299 3.19817 -1.09968
v 0.06302 -0.29866 -0.13095
v 0.14218 -0.29862 -0.05424
v 0.14218 -0.29862 0.05424
v 0.06302 -0.29866 0.13095
v -0.04891 -0.2987 0.13095
v -0.12807 -0.29873 0.05425
v -0.12807 -0.29873 -0.05425
v -0.04891 -0.2987 -0.13095
vn 0.9184 -0.07 -0.3895
vn 0.9152 0.1303 -0.3814
vn 0.9152 0.1303 0.3814
vn 0.9184 -0.07 0.3895
vn 0.3881 0.0914 0.9171
vn 0.3729 -0.0779 0.9246
vn -0.3574 0.0328 0.9334
vn -0.3754 -0.0913 0.9224
vn -0.917 -0.0136 0.3986
vn -0.9163 -0.1026 0.3872
vn -0.917 -0.0136 -0.3986
vn -0.9163 -0.1026 -0.3872
vn -0.3574 0.0328 -0.9334
vn -0.3754 -0.0913 -0.9224
vn 0.3881 0.0914 -0.9171
vn 0.3729 -0.0779 -0.9246
vn 0.9104 0.168 -0.3782
vn 0.9104 0.168 0.3782
vn -0.3534 -0.0259 -0.9351
vn 0.3912 0.0881 -0.9161
vn -0.9106 -0.1108 -0.3982
vn -0.3534 -0.0259 0.9351
vn -0.9106 -0.1108 0.3982
vn 0.3912 0.0881 0.9161
vn -0.2989 -0.5879 0.7517
vn 0.3111 -0.5775 0.7548
vn -0.2989 -0.5879 -0.7517
vn -0.7362 -0.5993 -0.3143
vn -0.7362 -0.5993 0.3143
vn 0.7551 -0.5737 0.3174
vn 0.7551 -0.5737 -0.3174
vn 0.3111 -0.5775 -0.7548
vn 0.7178 -0.6743 -0.1732
vn 0.7134 -0.6512 -0.2587
vn 0.8764 -0.2769 0.394
vn 0.8271 -0.3219 0.4608
vn -0.7093 0.4843 -0.5122
vn -0.7546 0.4178 -0.5061
vn -0.4455 -0.1577 -0.8813
vn -0.3748 -0.1379 -0.9168
vn 0.1573 -0.5963 -0.7872
vn 0.1598 -0.5464 -0.8221
vn 0.6833 -0.6828 -0.2585
vn 0.8273 -0.3437 0.4443
vn 0.5676 0.2924 0.7696
vn 0.5353 0.2198 0.8155
vn 0.5112 0.2392 0.8255
vn -0.0655 0.7284 0.682
vn -0.0262 0.7409 0.6711
vn 0.5461 -0.5719 0.6121
vn 0.2542 -0.0229 0.9669
vn 0.2295 -0.6149 -0.7545
vn -0.0028 0.6835 0.73
vn -0.1423 0.5574 0.818
vn 0.3466 -0.5031 -0.7917
vn 0.3197 -0.5644 -0.7611
vn 0.5799 -0.8101 -0.0867
vn 0.4823 -0.869 -0.1104
vn -0.2519 0.5272 0.8115
vn -0.439 0.8772 0.1945
vn -0.3935 0.9082 0.1426
vn -0.429 0.6825 -0.5918
vn -0.0996 0.0577 -0.9934
vn 0.06 -0.1258 0.9902
vn -0.3812 -0.0695 -0.9219
vn -0.5822 0.8009 0.1401
vn -0.5313 0.8228 0.2019
vn -0.5635 0.8217 0.0851
vn -0.6723 0.4748 -0.568
vn 0.3577 -0.6921 0.627
vn -0.2607 0.7474 -0.611
vn 0.0423 0.1672 -0.985
vn -0.7127 -0.319 0.6247
vn -0.7357 -0.2395 0.6336
vn -0.651 -0.7581 0.0375
vn -0.6246 -0.78 0.0385
vn 0.5189 0.8452 -0.128
vn 0.5597 0.8239 -0.0889
vn 0.0736 0.8175 0.5712
vn 0.0275 0.8382 0.5447
vn -0.4464 0.3624 0.8181
vn -0.4822 0.3333 0.8102
vn -0.7225 -0.3112 0.6174
vn -0.6009 -0.7979 0.0481
vn -0.1475 -0.7491 -0.6458
vn -0.1379 -0.7734 -0.6187
vn -0.132 -0.795 -0.5921
vn 0.3677 -0.3095 -0.8769
vn 0.3818 -0.234 -0.8942
vn -0.4236 -0.8906 0.1655
vn 0.007 -0.8909 -0.4542
vn -0.4691 0.3077 0.8278
vn 0.3803 -0.3142 -0.8699
vn 0.4236 -0.3859 -0.8195
vn -0.4808 0.3062 0.8216
vn -0.4794 0.3287 0.8137
vn -0.6134 -0.393 0.6851
vn -0.5361 -0.432 0.7253
vn 0.4352 -0.4342 -0.7887
vn 0.5805 0.3488 -0.7358
vn 0.5448 0.3439 -0.7648
vn 0.3756 0.901 -0.2171
vn -0.0772 0.8905 0.4484
vn 0.0703 -0.9339 -0.3506
vn 0.0124 0.8443 0.5358
vn 0.6421 0.3667 -0.6732
vn 0.6442 0.3124 -0.6982
vn 0.6237 0.3404 -0.7036
vn 0.5024 0.8548 -0.1299
vn -0.3144 -0.9145 0.2546
vn 0.3065 0.9157 -0.26
vn -0.1338 0.8975 0.4202
vn 0.1573 -0.191 0.9689
vn 0.1904 0.1578 0.9689
vn -0.1573 0.191 0.9689
vn -0.1904 -0.1578 0.9689
vn 0.9449 -0.2706 -0.1843
vn 0.979 0.0872 -0.1844
vn 0.979 0.0872 0.1844
vn 0.9449 -0.2706 0.1843
vn 0.2691 0.9454 -0.1839
vn -0.0866 0.9791 -0.1838
vn -0.0866 0.9791 0.1838
vn 0.2691 0.9454 0.1839
vn -0.979 -0.0872 0.1844
vn -0.9449 0.2706 0.1843
vn -0.9449 0.2706 -0.1843
vn -0.979 -0.0872 -0.1844
vn -0.1904 -0.1578 -0.9689
vn -0.1573 0.191 -0.9689
vn 0.1904 0.1578 -0.9689
vn 0.1573 -0.191 -0.9689
vn -0.2691 -0.9454 0.1839
vn -0.2344 -0.6715 0.7029
vn -0.6237 -0.5168 0.5864
vn -0.758 -0.6277 0.1771
vn -0.7029 -0.1045 0.7036
vn -0.104 0.7037 0.7028
vn -0.5152 0.6252 0.5863
vn -0.6706 0.2354 0.7035
vn -0.6261 0.7594 0.177
vn -0.2691 -0.9454 -0.1839
vn -0.758 -0.6277 -0.1771
vn -0.6237 -0.5168 -0.5864
vn -0.2344 -0.6715 -0.7029
vn -0.7029 -0.1045 -0.7036
vn -0.104 0.7037 -0.7028
vn -0.5152 0.6252 -0.5863
vn -0.6261 0.7594 -0.177
vn -0.6706 0.2354 -0.7035
vn 0.0866 -0.9791 0.1838
vn 0.6261 -0.7594 0.177
vn 0.5152 -0.6252 0.5863
vn 0.104 -0.7037 0.7028
vn 0.6706 -0.2354 0.7035
vn 0.2344 0.6715 0.7029
vn 0.6237 0.5168 0.5864
vn 0.758 0.6277 0.1771
vn 0.7029 0.1045 0.7036
vn 0.0866 -0.9791 -0.1838
vn 0.104 -0.7037 -0.7028
vn 0.5152 -0.6252 -0.5863
vn 0.6261 -0.7594 -0.177
vn 0.6706 -0.2354 -0.7035
vn 0.758 0.6277 -0.1771
vn 0.6237 0.5168 -0.5864
vn 0.2344 0.6715 -0.7029
vn 0.7029 0.1045 -0.7036
vn 0.2313 -0.3219 0.9181
vn 0.2028 0.3507 0.9143
vn -0.4631 0.3225 0.8256
vn -0.4346 -0.3512 0.8293
vn 0.9259 -0.3039 -0.2243
vn 0.8969 0.3787 -0.2282
vn 0.803 0.3781 0.4606
vn 0.8319 -0.3034 0.4646
vn 0.3457 0.888 -0.3032
vn -0.3279 0.8581 -0.3952
vn -0.4196 0.8591 0.2931
vn 0.254 0.8872 0.3851
vn -0.8969 -0.3787 0.2282
vn -0.9259 0.3039 0.2243
vn -0.8319 0.3034 -0.4646
vn -0.803 -0.3781 -0.4606
vn -0.2028 -0.3507 -0.9143
vn -0.2313 0.3219 -0.9181
vn 0.4346 0.3512 -0.8293
vn 0.4631 -0.3225 -0.8256
vn -0.3457 -0.888 0.3032
vn -0.254 -0.8872 -0.3851
vn 0.3279 -0.8581 0.3952
vn 0.4196 -0.8591 -0.2931
vn 0.0003 -1 0
f 2//1 9//2 11//3 3//4
f 3//4 11//3 12//5 4//6
f 4//6 12//5 13//7 5//8
f 5//8 13//7 14//9 6//10
f 6//10 14//9 15//11 7//12
f 7//12 15//11 16//13 8//14
f 8//14 16//13 10//15 1//16
f 9//2 17//17 19//18 11//3
f 16//13 24//19 18//20 10//15
f 16//13 15//11 23//21 24//19
f 13//7 21//22 22//23 14//9
f 11//3 19//18 20//24 12//5
f 14//9 22//23 23//21 15//11
f 12//5 20//24 21//22 13//7
f 10//15 18//20 17//17 9//2
f 4//6 5//8 190//25 189//26
f 7//12 8//14 193//27 192//28
f 5//8 6//10 191//29 190//25
f 3//4 4//6 189//26 188//30
f 6//10 7//12 192//28 191//29
f 1//16 2//1 187//31 186//32
f 2//1 3//4 188//30 187//31
f 8//14 1//16 186//32 193//27
f 1//16 10//15 9//2 2//1
f 50//33 49//34 48//35 51//36
f 55//37 44//38 43//39 56//40
f 42//41 41//42 27//43 49//34
f 49//34 27//43 29//44 48//35
f 51//36 48//35 47//45 52//46
f 47//45 31//47 33//48 46//49
f 64//50 51//36 52//46 63//51
f 56//40 43//39 42//41 57//52
f 57//52 42//41 49//34 50//33
f 63//51 52//46 53//53 62//54
f 40//55 58//56 65//57 26//58
f 32//59 62//54 61//60 34//61
f 60//62 55//37 56//40 59//63
f 65//57 50//33 51//36 64//50
f 30//64 63//51 62//54 32//59
f 58//56 57//52 50//33 65//57
f 43//39 39//65 41//42 42//41
f 53//53 46//49 45//66 54//67
f 54//67 45//66 44//38 55//37
f 48//35 29//44 31//47 47//45
f 46//49 33//48 35//68 45//66
f 52//46 47//45 46//49 53//53
f 45//66 35//68 37//69 44//38
f 44//38 37//69 39//65 43//39
f 59//63 56//40 57//52 58//56
f 28//70 64//50 63//51 30//64
f 36//71 60//62 59//63 38//72
f 62//54 53//53 54//67 61//60
f 61//60 54//67 55//37 60//62
f 26//58 65//57 64//50 28//70
f 38//72 59//63 58//56 40//55
f 34//61 61//60 60//62 36//71
f 90//73 89//74 88//75 91//76
f 95//77 84//78 83//79 96//80
f 82//81 81//82 67//83 89//74
f 89//74 67//83 69//84 88//75
f 91//76 88//75 87//85 92//86
f 87//85 71//87 73//88 86//89
f 104//90 91//76 92//86 103//91
f 96//80 83//79 82//81 97//92
f 97//92 82//81 89//74 90//73
f 103//91 92//86 93//93 102//94
f 80//95 98//96 105//97 66//98
f 72//99 102//94 101//100 74//101
f 100//102 95//77 96//80 99//103
f 105//97 90//73 91//76 104//90
f 70//104 103//91 102//94 72//99
f 98//96 97//92 90//73 105//97
f 83//79 79//105 81//82 82//81
f 93//93 86//89 85//106 94//107
f 94//107 85//106 84//78 95//77
f 88//75 69//84 71//87 87//85
f 86//89 73//88 75//108 85//106
f 92//86 87//85 86//89 93//93
f 85//106 75//108 77//109 84//78
f 84//78 77//109 79//105 83//79
f 99//103 96//80 97//92 98//96
f 68//110 104//90 103//91 70//104
f 76//111 100//102 99//103 78//112
f 102//94 93//93 94//107 101//100
f 101//100 94//107 95//77 100//102
f 66//98 105//97 104//90 68//110
f 78//112 99//103 98//96 80//95
f 74//101 101//100 100//102 76//111
f 136//113 142//114 113//115 107//116
f 150//117 156//118 143//119 135//120
f 155//121 127//122 114//123 141//124
f 108//125 115//126 129//127 121//128
f 122//129 128//130 157//131 149//132
f 106//133 109//134 110//135 112//136
f 107//116 111//137 110//135 109//134
f 108//125 112//136 110//135 111//137
f 113//115 116//138 117//139 119//140
f 114//123 118//141 117//139 116//138
f 115//126 119//140 117//139 118//141
f 120//142 123//143 124//144 126//145
f 121//128 125//146 124//144 123//143
f 122//129 126//145 124//144 125//146
f 127//122 130//147 131//148 133//149
f 128//130 132//150 131//148 130//147
f 129//127 133//149 131//148 132//150
f 134//151 137//152 138//153 140//154
f 135//120 139//155 138//153 137//152
f 136//113 140//154 138//153 139//155
f 141//124 144//156 145//157 147//158
f 142//114 146//159 145//157 144//156
f 143//119 147//158 145//157 146//159
f 148//160 151//161 152//162 154//163
f 149//132 153//164 152//162 151//161
f 150//117 154//163 152//162 153//164
f 155//121 158//165 159//166 161//167
f 156//118 160//168 159//166 158//165
f 157//131 161//167 159//166 160//168
f 120//142 106//133 112//136 123//143
f 123//143 112//136 108//125 121//128
f 107//116 113//115 119//140 111//137
f 111//137 119//140 115//126 108//125
f 114//123 127//122 133//149 118//141
f 118//141 133//149 129//127 115//126
f 128//130 122//129 125//146 132//150
f 132//150 125//146 121//128 129//127
f 148//160 120//142 126//145 151//161
f 151//161 126//145 122//129 149//132
f 127//122 155//121 161//167 130//147
f 130//147 161//167 157//131 128//130
f 156//118 150//117 153//164 160//168
f 160//168 153//164 149//132 157//131
f 134//151 148//160 154//163 137//152
f 137//152 154//163 150//117 135//120
f 155//121 141//124 147//158 158//165
f 158//165 147//158 143//119 156//118
f 142//114 136//113 139//155 146//159
f 146//159 139//155 135//120 143//119
f 106//133 134//151 140//154 109//134
f 109//134 140//154 136//113 107//116
f 141//124 114//123 116//138 144//156
f 144//156 116//138 113//115 142//114
f 120//142 148//160 134//151 106//133
f 176//169 178//170 165//171 163//172
f 182//173 184//174 179//175 175//176
f 183//177 171//178 166//179 177//180
f 164//181 167//182 173//183 169//184
f 170//185 172//186 185//187 181//188
f 162//189 163//172 164//181
f 165//171 166//179 167//182
f 168//190 169//184 170//185
f 171//178 172//186 173//183
f 174//191 175//176 176//169
f 177//180 178//170 179//175
f 180//192 181//188 182//173
f 183//177 184//174 185//187
f 168//190 162//189 164//181 169//184
f 163//172 165//171 167//182 164//181
f 166//179 171//178 173//183 167//182
f 172//186 170//185 169//184 173//183
f 180//192 168//190 170//185 181//188
f 171//178 183//177 185//187 172//186
f 184//174 182//173 181//188 185//187
f 174//191 180//192 182//173 175//176
f 183//177 177//180 179//175 184//174
f 178//170 176//169 175//176 179//175
f 162//189 174//191 176//169 163//172
f 177//180 166//179 165//171 178//170
f 168//190 180//192 174//191 162//189
f 25//193 186//32 187//31
f 25//193 187//31 188//30
f 25//193 188//30 189//26
f 25//193 189//26 190//25
f 25//193 190//25 191//29
f 25//193 191//29 192//28
f 25//193 192//28 193//27
f 25//193 193//27 186//32
