v -0.031284 2.216312 -0.069727
v -0.066721 2.216312 -0.028944
v -0.066721 2.216312 0.028944
v -0.031284 2.216312 0.069727
v 0.017965 2.216312 0.069756
v 0.052467 2.216312 0.028972
v 0.052467 2.216312 -0.028972
v 0.017965 2.216312 -0.069755
v 0.000001 -0.261318 -0.000000
v 0.245454 1.623407 -0.053372
v 0.381210 1.079023 -0.088746
v 0.345677 1.354498 -0.072916
v 0.150881 1.626309 0.115229
v 0.230041 1.073732 0.198913
v 0.215177 1.352348 0.158173
v 0.046700 1.625146 0.099256
v 0.049134 1.071823 0.177014
v 0.068822 1.349397 0.135702
v -0.011046 1.623500 0.037745
v -0.057432 1.070678 0.068173
v -0.012194 1.347130 0.051236
v -0.011046 1.623500 -0.037744
v -0.057432 1.070678 -0.068173
v -0.012194 1.347130 -0.051235
v 0.230041 1.073732 -0.198913
v 0.150881 1.626309 -0.115228
v 0.215177 1.352348 -0.158173
v 0.046700 1.625146 -0.099255
v 0.049134 1.071823 -0.177013
v 0.068822 1.349397 -0.135702
v -0.153191 0.411070 -0.380313
v -0.020027 0.831284 -0.236217
v -0.093869 0.625724 -0.309257
v -0.340475 0.479863 -0.145466
v -0.130232 0.891495 -0.085623
v -0.237207 0.690715 -0.114257
v -0.340475 0.479863 0.145466
v -0.130232 0.891495 0.085623
v -0.237207 0.690715 0.114257
v 0.166444 0.315270 0.413733
v 0.193589 0.743524 0.280668
v 0.172537 0.533486 0.353761
v 0.419359 0.248919 0.178554
v 0.384718 0.678958 0.128868
v 0.397521 0.467936 0.157444
v 0.419359 0.248919 -0.178553
v 0.384718 0.678958 -0.128868
v 0.397521 0.467936 -0.157444
v -0.027756 0.971040 0.127800
v -0.029650 0.918383 0.065899
v -0.003875 0.918383 -0.010785
v 0.035092 0.971040 -0.059180
v 0.064830 1.046890 -0.049781
v 0.067246 1.100226 0.012297
v 0.041214 1.100226 0.089748
v 0.001722 1.046890 0.137974
v -0.471420 1.701105 -0.081305
v -0.443065 1.709239 -0.095944
v -0.432533 1.709239 -0.127277
v -0.446362 1.701105 -0.155858
v -0.475415 1.690034 -0.164554
v -0.502237 1.682564 -0.149407
v -0.512219 1.682564 -0.119710
v -0.499925 1.690034 -0.091635
v -0.459050 1.339227 -0.044028
v -0.481787 1.325973 -0.095802
v -0.463426 1.325973 -0.150429
v -0.413912 1.339227 -0.178321
v -0.359964 1.358710 -0.162319
v -0.334058 1.372990 -0.109498
v -0.353526 1.372990 -0.051577
v -0.406209 1.358710 -0.024732
v -0.238191 1.174392 0.048674
v -0.190072 1.216526 0.010014
v -0.166028 1.216526 -0.061521
v -0.181134 1.174392 -0.121080
v -0.224983 1.117510 -0.133400
v -0.271092 1.078966 -0.094104
v -0.293839 1.078966 -0.026430
v -0.280725 1.117510 0.032441
v 0.141642 -0.197671 -0.343064
v 0.341959 -0.197664 -0.142104
v 0.341959 -0.197664 0.142104
v 0.141642 -0.197671 0.343064
v -0.141640 -0.197671 0.343064
v -0.341957 -0.197664 0.142104
v -0.341957 -0.197664 -0.142104
v -0.141640 -0.197671 -0.343064
v 0.330623 1.162407 -0.069278
v 0.446207 1.137160 -0.255206
v 0.282619 1.218705 -0.094197
v 0.410476 1.091408 -0.283421
v 0.219629 1.218705 -0.139669
v 0.358982 1.091408 -0.320595
v 0.180866 1.162407 -0.177387
v 0.320953 1.137160 -0.345627
v 0.189541 1.085104 -0.186335
v 0.318954 1.203104 -0.344306
v 0.238248 1.031835 -0.162456
v 0.407709 1.250384 -0.278308
v 0.298386 1.031835 -0.119043
v 0.445583 1.203104 -0.252893
v 0.336384 1.085104 -0.080330
v 0.355000 1.250384 -0.316358
v 0.535339 1.327430 -0.572748
v 0.551402 1.310535 -0.593018
v 0.578382 1.299281 -0.594376
v 0.601269 1.299281 -0.577854
v 0.594290 1.327430 -0.530191
v 0.565972 1.339411 -0.527148
v 0.541366 1.339411 -0.544911
v 0.608473 1.310535 -0.551819
v 0.481305 1.155925 -0.530494
v 0.443693 1.124870 -0.487765
v 0.516385 1.126718 -0.522998
v 0.482176 1.092700 -0.479309
v 0.524498 1.232240 -0.453083
v 0.491931 1.210207 -0.403051
v 0.428006 1.172848 -0.470654
v 0.467319 1.199217 -0.514560
v 0.484122 1.232240 -0.482230
v 0.446886 1.210207 -0.435569
v 0.553037 1.126717 -0.496540
v 0.522338 1.092700 -0.450316
v 0.531176 1.172848 -0.396176
v 0.560474 1.199217 -0.447312
v 0.571195 1.155925 -0.465603
v 0.542478 1.124869 -0.416452
v 0.734837 1.924077 -0.522761
v 0.920238 1.831778 -0.564058
v 0.847662 1.829579 -0.355790
v 1.012901 1.685011 -0.594157
v 0.892027 1.692428 -0.265950
v 0.898696 1.500794 -0.211083
v 0.552887 1.772114 -0.234020
v 0.634922 1.885802 -0.340689
v 0.526666 1.920624 -0.487389
v 0.377223 1.828619 -0.472067
v 0.255744 1.669679 -0.469312
v 0.497642 1.819288 -0.800392
v 0.596296 1.910434 -0.696424
v 0.811982 1.866600 -0.710758
v 0.837238 1.741516 -0.832204
v 0.829227 1.561091 -0.918281
v 1.050213 1.490008 -0.618817
v 0.878924 1.274532 -0.783269
v 0.787034 1.393087 -0.930394
v 1.011127 1.321005 -0.626720
v 0.908968 1.244319 -0.410504
v 0.774777 1.216928 -0.469089
v 0.859803 1.331812 -0.219893
v 0.648217 1.293691 -0.206366
v 0.614877 1.247204 -0.343905
v 0.438735 1.429386 -0.178604
v 0.476731 1.598596 -0.169847
v 0.307555 1.382719 -0.335954
v 0.402052 1.302810 -0.424654
v 0.214642 1.501468 -0.482278
v 0.277511 1.412933 -0.708719
v 0.383478 1.321635 -0.657480
v 0.365966 1.490661 -0.889105
v 0.407256 1.658872 -0.877047
v 0.538263 1.363561 -0.912857
v 0.543379 1.291359 -0.782663
v 0.756204 1.235753 -0.701914
v 0.576017 1.256200 -0.564094
v 0.232868 1.632131 0.047982
v 0.371898 1.069875 0.084991
v 0.315528 1.354001 0.092613
v 0.345677 1.354498 0.037392
v 0.316681 1.348762 0.057405
v -0.175600 0.419301 0.352213
v -0.119120 0.400858 0.383876
v -0.139985 0.404133 0.352635
v -0.013972 0.839001 0.226946
v -0.115285 0.635435 0.280122
v -0.060389 0.614133 0.314850
v -0.081640 0.615711 0.282587
v 0.191996 0.753756 -0.269307
v 0.192078 0.308546 -0.389897
v 0.131211 0.325830 -0.410049
v 0.155701 0.312424 -0.383820
v 0.198760 0.525846 -0.330879
v 0.137494 0.545619 -0.347907
v 0.161929 0.528705 -0.324022
v -1.115119 3.668127 -0.357500
v -1.515514 3.318912 0.000000
v -0.796607 3.841604 0.000000
v -1.307530 3.355176 -0.640787
v -0.711842 3.593610 -0.849321
v -0.438548 3.899381 -0.357500
v -1.115120 3.668127 0.357501
v -0.711842 3.593610 0.849322
v -0.438549 3.899381 0.357501
v -1.307530 3.355176 0.640788
v -1.109349 3.144950 1.079443
v -1.637537 2.964414 0.521252
v -1.732456 2.467950 0.663518
v -1.822365 2.847620 -0.000000
v -1.934591 2.393487 -0.000000
v -1.637537 2.964414 -0.521252
v -1.732455 2.467951 -0.663519
v -1.109348 3.144951 -1.079442
v -1.101956 2.683457 -1.329831
v -0.599703 3.265530 -1.292111
v -0.472456 2.893249 -1.545186
v -0.122878 3.482129 -1.079442
v 0.153755 3.112663 -1.329831
v 0.405311 3.662666 -0.521251
v -0.094837 3.769678 -0.640787
v 0.091830 3.868307 0.000001
v -0.094838 3.769678 0.640788
v 0.405311 3.662666 0.521253
v 0.622959 3.683440 0.000001
v 0.989679 3.393011 0.000001
v 1.205635 3.009707 0.000001
v 0.784254 3.328170 -0.663518
v 0.784254 3.328170 0.663520
v 0.995010 2.937715 0.700966
v 0.153754 3.112663 1.329832
v -0.122878 3.482129 1.079443
v 0.330732 2.710663 1.402975
v -0.472457 2.893249 1.545187
v -0.599704 3.265530 1.292112
v -0.332557 2.483949 1.625564
v -1.101957 2.683457 1.329831
v -0.995846 2.257234 1.402975
v -0.847331 1.928804 1.334309
v -1.660124 2.030182 0.700965
v -1.479097 1.712865 0.666657
v -1.870748 1.958190 -0.000000
v -1.679412 1.644397 -0.000000
v -1.660123 2.030182 -0.700965
v -1.479096 1.712865 -0.666657
v -0.995845 2.257235 -1.402975
v -0.847330 1.928804 -1.334308
v -0.332556 2.483948 -1.625563
v -0.216505 2.144422 -1.546002
v 0.330733 2.710662 -1.402974
v 0.414321 2.360039 -1.334308
v 0.995011 2.937715 -0.700964
v 1.046087 2.575979 -0.666656
v 0.949210 2.219120 -0.563856
v 1.246402 2.644448 0.000001
v 1.118999 2.277155 0.000001
v 1.046086 2.575980 0.666658
v 0.949209 2.219121 0.563858
v 0.610019 1.964530 0.364356
v 0.416127 2.036911 1.127220
v 0.414320 2.360040 1.334309
v -0.216506 2.144422 1.546003
v -0.117424 1.854542 1.306654
v -0.074989 1.730392 0.840514
v -0.650975 1.672174 1.127219
v -0.419760 1.612549 0.723918
v -1.184056 1.489965 0.563857
v -0.759996 1.496255 0.364355
v -1.353846 1.431930 -0.000000
v -0.870326 1.458544 0.000000
v -1.184056 1.489965 -0.563857
v -0.759996 1.496255 -0.364355
v -0.650974 1.672173 -1.127219
v -0.419760 1.612548 -0.723917
v -0.117423 1.854542 -1.306653
v -0.074988 1.730392 -0.840513
v 0.416128 2.036911 -1.127219
v 0.269783 1.848235 -0.723917
v 0.610020 1.964529 -0.364354
v -0.066611 1.705882 0.000000
v 0.720349 2.002241 0.000001
v 0.269783 1.848236 0.723918
v 0.401564 -0.096361 -0.166874
v 0.438224 0.073197 -0.183567
v 0.438223 0.073201 0.183567
v 0.401573 -0.096346 0.166878
v 0.180354 0.073014 0.439712
v 0.166335 -0.096353 0.402874
v -0.401565 -0.096359 0.166875
v -0.428695 0.071644 0.178862
v -0.428694 0.071649 -0.178862
v -0.401574 -0.096344 -0.166878
v -0.178766 0.072365 -0.434927
v -0.166335 -0.096351 -0.402875
v 0.162675 -0.104298 -0.393823
v 0.172157 0.064812 -0.424947
v -0.162646 -0.104303 0.393812
v -0.169618 0.064573 0.422835
f 35 38 20 23
f 44 47 11 168
f 179 32 29 25
f 32 35 23 29
f 32 179 184 33
f 42 177 173 40
f 285 282 31 181
f 38 175 17 20
f 277 286 85 84
f 278 281 87 86
f 279 287 172 37
f 287 276 40 173
f 275 277 84 83
f 280 279 37 34
f 183 48 46 180
f 10 26 8 7
f 26 28 1 8
f 19 16 4 3
f 16 13 5 4
f 28 22 2 1
f 22 19 3 2
f 169 15 14 168
f 284 272 82 81
f 274 273 46 43
f 282 280 34 31
f 283 284 81 88
f 167 10 7 6
f 276 274 43 40
f 286 278 86 85
f 182 285 181
f 26 10 12 27
f 27 12 11 25
f 167 13 15 169
f 41 44 168 14
f 13 167 6 5
f 12 170 168 11
f 13 16 18 15
f 15 18 17 14
f 16 19 21 18
f 18 21 20 17
f 19 22 24 21
f 21 24 23 20
f 22 28 30 24
f 24 30 29 23
f 28 26 27 30
f 30 27 25 29
f 10 167 170 12
f 179 47 48 183
f 35 32 33 36
f 36 33 31 34
f 38 35 36 39
f 39 36 34 37
f 175 41 14 17
f 41 175 177 42
f 175 38 39 176
f 176 39 37 172
f 44 41 42 45
f 45 42 40 43
f 47 44 45 48
f 48 45 43 46
f 47 179 25 11
f 33 184 181 31
f 281 283 88 87
f 65 64 63 66
f 70 59 58 71
f 66 63 62 67
f 79 66 67 78
f 71 58 57 72
f 72 57 64 65
f 78 67 68 77
f 56 73 80 49
f 52 77 76 53
f 75 70 71 74
f 80 65 66 79
f 51 78 77 52
f 73 72 65 80
f 68 61 60 69
f 69 60 59 70
f 67 62 61 68
f 74 71 72 73
f 50 79 78 51
f 54 75 74 55
f 77 68 69 76
f 76 69 70 75
f 49 80 79 50
f 55 74 73 56
f 53 76 75 54
f 9 81 82
f 9 82 83
f 9 83 84
f 9 84 85
f 9 85 86
f 9 86 87
f 9 87 88
f 9 88 81
f 103 90 102 89
f 97 96 94 99
f 91 100 104 93
f 101 92 90 103
f 95 98 96 97
f 113 106 107 115
f 99 94 92 101
f 93 104 98 95
f 127 112 109 126
f 120 105 106 113
f 123 108 112 127
f 126 109 110 117
f 115 107 108 123
f 121 111 105 120
f 117 110 111 121
f 89 102 100 91
f 92 124 128 90
f 104 122 119 98
f 94 116 124 92
f 90 128 125 102
f 102 125 118 100
f 100 118 122 104
f 96 114 116 94
f 120 113 114 119
f 113 115 116 114
f 115 123 124 116
f 126 117 118 125
f 117 121 122 118
f 121 120 119 122
f 123 127 128 124
f 127 126 125 128
f 98 119 114 96
f 130 131 133 132
f 132 133 134 145
f 155 134 133 135
f 129 141 137
f 129 137 136
f 131 129 136
f 136 137 138 135
f 135 138 139 155
f 162 139 138 140
f 141 140 138 137
f 148 151 149
f 133 131 136 135
f 129 142 141
f 144 145 148 147
f 142 130 132 143
f 162 144 147 161
f 147 148 146
f 129 130 142
f 151 152 149
f 151 154 152
f 142 143 140 141
f 165 146 149 150
f 159 163 164 160
f 154 156 152
f 154 158 156
f 145 134 151 148
f 158 159 156
f 158 161 159
f 155 154 151 134
f 152 156 157 153
f 161 163 159
f 161 147 163
f 155 139 158 154
f 156 159 160 157
f 147 146 163
f 162 140 143 144
f 162 161 158 139
f 164 165 166
f 163 146 165 164
f 157 166 153
f 157 160 166
f 160 164 166
f 165 150 166
f 150 153 166
f 149 152 153 150
f 129 131 130
f 149 146 148
f 145 144 143 132
f 167 169 171
f 167 171 170
f 169 168 171
f 171 168 170
f 179 183 185
f 179 185 184
f 183 180 182 185
f 185 182 181 184
f 177 175 178
f 178 175 176
f 173 177 178 174
f 174 178 176 172
f 287 173 174
f 180 285 182
f 287 174 172
f 273 285 180 46
f 187 186 189
f 192 186 187
f 188 191 186
f 188 186 192
f 189 186 190
f 191 190 186
f 193 192 195
f 192 193 194
f 188 192 194
f 195 192 187
f 196 193 195
f 195 197 196
f 195 187 197
f 197 187 199
f 198 197 199 200
f 196 197 198 226
f 199 187 201
f 200 199 201 202
f 201 187 189
f 189 203 201
f 202 201 203 204
f 203 190 205
f 189 190 203
f 204 203 205 206
f 206 205 207 208
f 205 190 207
f 207 209 217 208
f 210 209 207
f 207 190 210
f 210 211 209
f 210 191 211
f 190 191 210
f 211 194 212
f 213 211 212
f 214 211 213
f 194 211 191
f 209 211 214
f 215 214 213 218
f 217 209 214 215
f 216 215 218 219
f 241 217 215 216
f 213 221 220 218
f 218 220 222 219
f 220 221 224 223
f 222 220 223 225
f 223 224 196 226
f 225 223 226 227
f 226 198 229 227
f 227 229 230 228
f 251 225 227 228
f 229 198 200 231
f 230 229 231 232
f 231 200 202 233
f 232 231 233 234
f 233 202 204 235
f 234 233 235 236
f 235 204 206 237
f 236 235 237 238
f 237 206 208 239
f 238 237 239 240
f 208 217 241 239
f 239 241 242 240
f 242 241 216 244
f 243 242 244
f 240 242 243
f 244 216 219 246
f 245 243 244
f 245 244 247
f 244 246 247
f 246 250 247
f 247 249 271 248
f 270 245 247 248
f 250 249 247
f 250 222 225 251
f 219 222 250 246
f 249 250 252
f 250 251 252
f 252 251 228
f 253 252 254 255
f 271 249 252 253
f 254 252 228
f 254 228 256
f 254 256 257 255
f 256 230 232
f 228 230 256
f 257 256 258 259
f 258 256 232
f 258 232 260
f 259 258 260 261
f 232 234 260
f 260 234 236
f 261 260 262 263
f 262 260 236
f 262 236 264
f 263 262 264 265
f 264 238 240
f 236 238 264
f 265 264 266 267
f 266 264 240
f 266 240 243
f 266 243 268 267
f 269 265 267
f 267 268 269
f 263 269 261
f 263 265 269
f 269 268 270
f 270 248 269
f 248 271 269
f 269 271 253
f 269 253 255
f 255 257 269
f 269 257 259
f 269 259 261
f 268 243 245 270
f 224 193 196
f 221 193 224
f 212 193 221
f 212 221 213
f 212 194 193
f 188 194 191
f 273 274 275 272
f 274 276 277 275
f 279 280 281 278
f 280 282 283 281
f 285 273 272 284
f 278 286 287 279
f 284 283 282 285
f 276 287 286 277
f 272 275 83 82
f 1 2 3 4 5 6 7 8