v -0.031284 2.216312 -0.069727
v -0.066721 2.216312 -0.028944
v -0.066721 2.216312 0.028944
v -0.031284 2.216312 0.069727
v 0.017965 2.216312 0.069756
v 0.052467 2.216312 0.028972
v 0.052467 2.216312 -0.028972
v 0.017965 2.216312 -0.069755
v 0.000001 -0.261318 -0.000000
v 0.245454 1.623407 -0.053372
v 0.381210 1.079023 -0.088746
v 0.345677 1.354498 -0.072916
v 0.150881 1.626309 0.115229
v 0.230041 1.073732 0.198913
v 0.215177 1.352348 0.158173
v 0.046700 1.625146 0.099256
v 0.049134 1.071823 0.177014
v 0.068822 1.349397 0.135702
v -0.011046 1.623500 0.037745
v -0.057432 1.070678 0.068173
v -0.012194 1.347130 0.051236
v -0.011046 1.623500 -0.037744
v -0.057432 1.070678 -0.068173
v -0.012194 1.347130 -0.051235
v 0.230041 1.073732 -0.198913
v 0.150881 1.626309 -0.115228
v 0.215177 1.352348 -0.158173
v 0.046700 1.625146 -0.099255
v 0.049134 1.071823 -0.177013
v 0.068822 1.349397 -0.135702
v -0.153191 0.411070 -0.380313
v -0.020027 0.831284 -0.236217
v -0.093869 0.625724 -0.309257
v -0.340475 0.479863 -0.145466
v -0.130232 0.891495 -0.085623
v -0.237207 0.690715 -0.114257
v -0.340475 0.479863 0.145466
v -0.130232 0.891495 0.085623
v -0.237207 0.690715 0.114257
v 0.166444 0.315270 0.413733
v 0.193589 0.743524 0.280668
v 0.172537 0.533486 0.353761
v 0.419359 0.248919 0.178554
v 0.384718 0.678958 0.128868
v 0.397521 0.467936 0.157444
v 0.419359 0.248919 -0.178553
v 0.384718 0.678958 -0.128868
v 0.397521 0.467936 -0.157444
v -0.027756 0.971040 0.127800
v -0.029650 0.918383 0.065899
v -0.003875 0.918383 -0.010785
v 0.035092 0.971040 -0.059180
v 0.064830 1.046890 -0.049781
v 0.067246 1.100226 0.012297
v 0.041214 1.100226 0.089748
v 0.001722 1.046890 0.137974
v -0.471420 1.701105 -0.081305
v -0.443065 1.709239 -0.095944
v -0.432533 1.709239 -0.127277
v -0.446362 1.701105 -0.155858
v -0.475415 1.690034 -0.164554
v -0.502237 1.682564 -0.149407
v -0.512219 1.682564 -0.119710
v -0.499925 1.690034 -0.091635
v -0.459050 1.339227 -0.044028
v -0.481787 1.325973 -0.095802
v -0.463426 1.325973 -0.150429
v -0.413912 1.339227 -0.178321
v -0.359964 1.358710 -0.162319
v -0.334058 1.372990 -0.109498
v -0.353526 1.372990 -0.051577
v -0.406209 1.358710 -0.024732
v -0.238191 1.174392 0.048674
v -0.190072 1.216526 0.010014
v -0.166028 1.216526 -0.061521
v -0.181134 1.174392 -0.121080
v -0.224983 1.117510 -0.133400
v -0.271092 1.078966 -0.094104
v -0.293839 1.078966 -0.026430
v -0.280725 1.117510 0.032441
v 0.141642 -0.197671 -0.343064
v 0.341959 -0.197664 -0.142104
v 0.341959 -0.197664 0.142104
v 0.141642 -0.197671 0.343064
v -0.141640 -0.197671 0.343064
v -0.341957 -0.197664 0.142104
v -0.341957 -0.197664 -0.142104
v -0.141640 -0.197671 -0.343064
v 0.330623 1.162407 -0.069278
v 0.446207 1.137160 -0.255206
v 0.282619 1.218705 -0.094197
v 0.410476 1.091408 -0.283421
v 0.219629 1.218705 -0.139669
v 0.358982 1.091408 -0.320595
v 0.180866 1.162407 -0.177387
v 0.320953 1.137160 -0.345627
v 0.189541 1.085104 -0.186335
v 0.318954 1.203104 -0.344306
v 0.238248 1.031835 -0.162456
v 0.407709 1.250384 -0.278308
v 0.298386 1.031835 -0.119043
v 0.445583 1.203104 -0.252893
v 0.336384 1.085104 -0.080330
v 0.355000 1.250384 -0.316358
v 0.535339 1.327430 -0.572748
v 0.551402 1.310535 -0.593018
v 0.578382 1.299281 -0.594376
v 0.601269 1.299281 -0.577854
v 0.594290 1.327430 -0.530191
v 0.565972 1.339411 -0.527148
v 0.541366 1.339411 -0.544911
v 0.608473 1.310535 -0.551819
v 0.481305 1.155925 -0.530494
v 0.443693 1.124870 -0.487765
v 0.516385 1.126718 -0.522998
v 0.482176 1.092700 -0.479309
v 0.524498 1.232240 -0.453083
v 0.491931 1.210207 -0.403051
v 0.428006 1.172848 -0.470654
v 0.467319 1.199217 -0.514560
v 0.484122 1.232240 -0.482230
v 0.446886 1.210207 -0.435569
v 0.553037 1.126717 -0.496540
v 0.522338 1.092700 -0.450316
v 0.531176 1.172848 -0.396176
v 0.560474 1.199217 -0.447312
v 0.571195 1.155925 -0.465603
v 0.542478 1.124869 -0.416452
v 0.232868 1.632131 0.047982
v 0.371898 1.069875 0.084991
v 0.315528 1.354001 0.092613
v 0.345677 1.354498 0.037392
v 0.316681 1.348762 0.057405
v -0.175600 0.419301 0.352213
v -0.119120 0.400858 0.383876
v -0.139985 0.404133 0.352635
v -0.013972 0.839001 0.226946
v -0.115285 0.635435 0.280122
v -0.060389 0.614133 0.314850
v -0.081640 0.615711 0.282587
v 0.191996 0.753756 -0.269307
v 0.192078 0.308546 -0.389897
v 0.131211 0.325830 -0.410049
v 0.155701 0.312424 -0.383820
v 0.198760 0.525846 -0.330879
v 0.137494 0.545619 -0.347907
v 0.161929 0.528705 -0.324022
v 0.401564 -0.096361 -0.166874
v 0.438224 0.073197 -0.183567
v 0.438223 0.073201 0.183567
v 0.401573 -0.096346 0.166878
v 0.180354 0.073014 0.439712
v 0.166335 -0.096353 0.402874
v -0.401565 -0.096359 0.166875
v -0.428695 0.071644 0.178862
v -0.428694 0.071649 -0.178862
v -0.401574 -0.096344 -0.166878
v -0.178766 0.072365 -0.434927
v -0.166335 -0.096351 -0.402875
v 0.162675 -0.104298 -0.393823
v 0.172157 0.064812 -0.424947
v -0.162646 -0.104303 0.393812
v -0.169618 0.064573 0.422835
v -0.502954 1.951109 -0.123211
v -0.098993 2.472459 -0.018234
v -0.098993 2.472459 0.018235
v -0.117497 2.461095 0.043903
v -0.143909 2.444872 0.043885
v -0.162914 2.433200 0.018217
v -0.162914 2.433200 -0.018216
v -0.143909 2.444872 -0.043884
v -0.117497 2.461095 -0.043902
v -0.254761 2.595616 0.000000
v 0.616397 1.467820 -0.561508
f 35 38 20 23
f 44 47 11 130
f 141 32 29 25
f 32 35 23 29
f 32 141 146 33
f 42 139 135 40
f 161 158 31 143
f 38 137 17 20
f 153 162 85 84
f 154 157 87 86
f 155 163 134 37
f 163 152 40 135
f 151 153 84 83
f 156 155 37 34
f 145 48 46 142
f 10 26 8 7
f 26 28 1 8
f 19 16 4 3
f 16 13 5 4
f 28 22 2 1
f 22 19 3 2
f 131 15 14 130
f 160 148 82 81
f 150 149 46 43
f 158 156 34 31
f 159 160 81 88
f 129 10 7 6
f 152 150 43 40
f 162 154 86 85
f 144 161 143
f 26 10 12 27
f 27 12 11 25
f 129 13 15 131
f 41 44 130 14
f 13 129 6 5
f 12 132 130 11
f 13 16 18 15
f 15 18 17 14
f 16 19 21 18
f 18 21 20 17
f 19 22 24 21
f 21 24 23 20
f 22 28 30 24
f 24 30 29 23
f 28 26 27 30
f 30 27 25 29
f 10 129 132 12
f 141 47 48 145
f 35 32 33 36
f 36 33 31 34
f 38 35 36 39
f 39 36 34 37
f 137 41 14 17
f 41 137 139 42
f 137 38 39 138
f 138 39 37 134
f 44 41 42 45
f 45 42 40 43
f 47 44 45 48
f 48 45 43 46
f 47 141 25 11
f 33 146 143 31
f 157 159 88 87
f 65 64 63 66
f 70 59 58 71
f 66 63 62 67
f 79 66 67 78
f 71 58 57 72
f 72 57 64 65
f 78 67 68 77
f 56 73 80 49
f 52 77 76 53
f 75 70 71 74
f 80 65 66 79
f 51 78 77 52
f 73 72 65 80
f 68 61 60 69
f 69 60 59 70
f 67 62 61 68
f 74 71 72 73
f 50 79 78 51
f 54 75 74 55
f 77 68 69 76
f 76 69 70 75
f 49 80 79 50
f 55 74 73 56
f 53 76 75 54
f 9 81 82
f 9 82 83
f 9 83 84
f 9 84 85
f 9 85 86
f 9 86 87
f 9 87 88
f 9 88 81
f 103 90 102 89
f 97 96 94 99
f 91 100 104 93
f 101 92 90 103
f 95 98 96 97
f 113 106 107 115
f 99 94 92 101
f 93 104 98 95
f 127 112 109 126
f 120 105 106 113
f 123 108 112 127
f 126 109 110 117
f 115 107 108 123
f 121 111 105 120
f 117 110 111 121
f 89 102 100 91
f 92 124 128 90
f 104 122 119 98
f 94 116 124 92
f 90 128 125 102
f 102 125 118 100
f 100 118 122 104
f 96 114 116 94
f 120 113 114 119
f 113 115 116 114
f 115 123 124 116
f 126 117 118 125
f 117 121 122 118
f 121 120 119 122
f 123 127 128 124
f 127 126 125 128
f 98 119 114 96
f 129 131 133
f 129 133 132
f 131 130 133
f 133 130 132
f 141 145 147
f 141 147 146
f 145 142 144 147
f 147 144 143 146
f 139 137 140
f 140 137 138
f 135 139 140 136
f 136 140 138 134
f 163 135 136
f 142 161 144
f 163 136 134
f 149 161 142 46
f 149 150 151 148
f 150 152 153 151
f 155 156 157 154
f 156 158 159 157
f 161 149 148 160
f 154 162 163 155
f 160 159 158 161
f 152 163 162 153
f 148 151 83 82
f 58 59 164
f 60 61 164
f 63 64 164
f 62 63 164
f 61 62 164
f 57 58 164
f 59 60 164
f 64 57 164
f 6 7 165 166
f 4 5 167 168
f 2 3 169 170
f 8 1 171 172
f 7 8 172 165
f 5 6 166 167
f 3 4 168 169
f 1 2 170 171
f 171 170 173
f 169 168 173
f 167 166 173
f 165 172 173
f 172 171 173
f 170 169 173
f 168 167 173
f 166 165 173
f 107 106 174
f 112 108 174
f 111 110 174
f 108 107 174
f 106 105 174
f 109 112 174
f 105 111 174
f 110 109 174
